<svg width="595" height="297" viewBox="0 0 595 297" fill="none" xmlns="http://www.w3.org/2000/svg">
<path d="M408.953 51L405.531 41.4844H392.43L389.078 51H383.172L395.992 16.5938H402.086L414.906 51H408.953ZM404.055 36.6562L400.844 27.3281C400.609 26.7031 400.281 25.7188 399.859 24.375C399.453 23.0312 399.172 22.0469 399.016 21.4219C398.594 23.3438 397.977 25.4453 397.164 27.7266L394.07 36.6562H404.055ZM432.086 24.6094C435.32 24.6094 437.836 25.7812 439.633 28.125C441.445 30.4688 442.352 33.7578 442.352 37.9922C442.352 42.2422 441.438 45.5547 439.609 47.9297C437.781 50.2891 435.242 51.4688 431.992 51.4688C428.711 51.4688 426.164 50.2891 424.352 47.9297H423.977L422.969 51H418.844V14.5312H424.352V23.2031C424.352 23.8438 424.32 24.7969 424.258 26.0625C424.195 27.3281 424.148 28.1328 424.117 28.4766H424.352C426.102 25.8984 428.68 24.6094 432.086 24.6094ZM430.656 29.1094C428.438 29.1094 426.836 29.7656 425.852 31.0781C424.883 32.375 424.383 34.5547 424.352 37.6172V37.9922C424.352 41.1484 424.852 43.4375 425.852 44.8594C426.852 46.2656 428.484 46.9688 430.75 46.9688C432.703 46.9688 434.18 46.1953 435.18 44.6484C436.195 43.1016 436.703 40.8672 436.703 37.9453C436.703 32.0547 434.688 29.1094 430.656 29.1094ZM471.742 37.9922C471.742 42.2266 470.656 45.5312 468.484 47.9062C466.312 50.2812 463.289 51.4688 459.414 51.4688C456.992 51.4688 454.852 50.9219 452.992 49.8281C451.133 48.7344 449.703 47.1641 448.703 45.1172C447.703 43.0703 447.203 40.6953 447.203 37.9922C447.203 33.7891 448.281 30.5078 450.438 28.1484C452.594 25.7891 455.633 24.6094 459.555 24.6094C463.305 24.6094 466.273 25.8203 468.461 28.2422C470.648 30.6484 471.742 33.8984 471.742 37.9922ZM452.875 37.9922C452.875 43.9766 455.086 46.9688 459.508 46.9688C463.883 46.9688 466.07 43.9766 466.07 37.9922C466.07 32.0703 463.867 29.1094 459.461 29.1094C457.148 29.1094 455.469 29.875 454.422 31.4062C453.391 32.9375 452.875 35.1328 452.875 37.9922ZM496.375 51L495.602 47.6016H495.32C494.555 48.8047 493.461 49.75 492.039 50.4375C490.633 51.125 489.023 51.4688 487.211 51.4688C484.07 51.4688 481.727 50.6875 480.18 49.125C478.633 47.5625 477.859 45.1953 477.859 42.0234V25.0781H483.414V41.0625C483.414 43.0469 483.82 44.5391 484.633 45.5391C485.445 46.5234 486.719 47.0156 488.453 47.0156C490.766 47.0156 492.461 46.3281 493.539 44.9531C494.633 43.5625 495.18 41.2422 495.18 37.9922V25.0781H500.711V51H496.375ZM518.219 47.0156C519.562 47.0156 520.906 46.8047 522.25 46.3828V50.5312C521.641 50.7969 520.852 51.0156 519.883 51.1875C518.93 51.375 517.938 51.4688 516.906 51.4688C511.688 51.4688 509.078 48.7188 509.078 43.2188V29.25H505.539V26.8125L509.336 24.7969L511.211 19.3125H514.609V25.0781H521.992V29.25H514.609V43.125C514.609 44.4531 514.938 45.4375 515.594 46.0781C516.266 46.7031 517.141 47.0156 518.219 47.0156ZM567.367 16.7344V38.9062C567.367 41.4375 566.82 43.6562 565.727 45.5625C564.648 47.4531 563.078 48.9141 561.016 49.9453C558.969 50.9609 556.516 51.4688 553.656 51.4688C549.406 51.4688 546.102 50.3438 543.742 48.0938C541.383 45.8438 540.203 42.75 540.203 38.8125V16.7344H545.828V38.4141C545.828 41.2422 546.484 43.3281 547.797 44.6719C549.109 46.0156 551.125 46.6875 553.844 46.6875C559.125 46.6875 561.766 43.9141 561.766 38.3672V16.7344H567.367ZM592.961 43.6172C592.961 46.1484 592.039 48.0938 590.195 49.4531C588.352 50.7969 585.711 51.4688 582.273 51.4688C578.82 51.4688 576.047 50.9453 573.953 49.8984V45.1406C577 46.5469 579.836 47.25 582.461 47.25C585.852 47.25 587.547 46.2266 587.547 44.1797C587.547 43.5234 587.359 42.9766 586.984 42.5391C586.609 42.1016 585.992 41.6484 585.133 41.1797C584.273 40.7109 583.078 40.1797 581.547 39.5859C578.562 38.4297 576.539 37.2734 575.477 36.1172C574.43 34.9609 573.906 33.4609 573.906 31.6172C573.906 29.3984 574.797 27.6797 576.578 26.4609C578.375 25.2266 580.812 24.6094 583.891 24.6094C586.938 24.6094 589.82 25.2266 592.539 26.4609L590.758 30.6094C587.961 29.4531 585.609 28.875 583.703 28.875C580.797 28.875 579.344 29.7031 579.344 31.3594C579.344 32.1719 579.719 32.8594 580.469 33.4219C581.234 33.9844 582.891 34.7578 585.438 35.7422C587.578 36.5703 589.133 37.3281 590.102 38.0156C591.07 38.7031 591.789 39.5 592.258 40.4062C592.727 41.2969 592.961 42.3672 592.961 43.6172Z" fill="white"/>
<path d="M18.2617 123H15.918L9.67188 114.691L7.87891 116.285V123H5.88672V105.867H7.87891V114.363L15.6484 105.867H18.0039L11.1133 113.309L18.2617 123ZM22.2812 123H20.3359V104.766H22.2812V123ZM31.832 123.234C29.9336 123.234 28.4336 122.656 27.332 121.5C26.2383 120.344 25.6914 118.738 25.6914 116.684C25.6914 114.613 26.1992 112.969 27.2148 111.75C28.2383 110.531 29.6094 109.922 31.3281 109.922C32.9375 109.922 34.2109 110.453 35.1484 111.516C36.0859 112.57 36.5547 113.965 36.5547 115.699V116.93H27.707C27.7461 118.438 28.125 119.582 28.8438 120.363C29.5703 121.145 30.5898 121.535 31.9023 121.535C33.2852 121.535 34.6523 121.246 36.0039 120.668V122.402C35.3164 122.699 34.6641 122.91 34.0469 123.035C33.4375 123.168 32.6992 123.234 31.832 123.234ZM31.3047 111.551C30.2734 111.551 29.4492 111.887 28.832 112.559C28.2227 113.23 27.8633 114.16 27.7539 115.348H34.4688C34.4688 114.121 34.1953 113.184 33.6484 112.535C33.1016 111.879 32.3203 111.551 31.3047 111.551ZM45.7422 109.922C46.3125 109.922 46.8242 109.969 47.2773 110.062L47.0078 111.867C46.4766 111.75 46.0078 111.691 45.6016 111.691C44.5625 111.691 43.6719 112.113 42.9297 112.957C42.1953 113.801 41.8281 114.852 41.8281 116.109V123H39.8828V110.156H41.4883L41.7109 112.535H41.8047C42.2812 111.699 42.8555 111.055 43.5273 110.602C44.1992 110.148 44.9375 109.922 45.7422 109.922ZM60.7656 116.566C60.7656 118.66 60.2383 120.297 59.1836 121.477C58.1289 122.648 56.6719 123.234 54.8125 123.234C53.6641 123.234 52.6445 122.965 51.7539 122.426C50.8633 121.887 50.1758 121.113 49.6914 120.105C49.207 119.098 48.9648 117.918 48.9648 116.566C48.9648 114.473 49.4883 112.844 50.5352 111.68C51.582 110.508 53.0352 109.922 54.8945 109.922C56.6914 109.922 58.1172 110.52 59.1719 111.715C60.2344 112.91 60.7656 114.527 60.7656 116.566ZM50.9805 116.566C50.9805 118.207 51.3086 119.457 51.9648 120.316C52.6211 121.176 53.5859 121.605 54.8594 121.605C56.1328 121.605 57.0977 121.18 57.7539 120.328C58.418 119.469 58.75 118.215 58.75 116.566C58.75 114.934 58.418 113.695 57.7539 112.852C57.0977 112 56.125 111.574 54.8359 111.574C53.5625 111.574 52.6016 111.992 51.9531 112.828C51.3047 113.664 50.9805 114.91 50.9805 116.566ZM72.4727 119.496C72.4727 120.691 72.0273 121.613 71.1367 122.262C70.2461 122.91 68.9961 123.234 67.3867 123.234C65.6836 123.234 64.3555 122.965 63.4023 122.426V120.621C64.0195 120.934 64.6797 121.18 65.3828 121.359C66.0938 121.539 66.7773 121.629 67.4336 121.629C68.4492 121.629 69.2305 121.469 69.7773 121.148C70.3242 120.82 70.5977 120.324 70.5977 119.66C70.5977 119.16 70.3789 118.734 69.9414 118.383C69.5117 118.023 68.668 117.602 67.4102 117.117C66.2148 116.672 65.3633 116.285 64.8555 115.957C64.3555 115.621 63.9805 115.242 63.7305 114.82C63.4883 114.398 63.3672 113.895 63.3672 113.309C63.3672 112.262 63.793 111.438 64.6445 110.836C65.4961 110.227 66.6641 109.922 68.1484 109.922C69.5312 109.922 70.8828 110.203 72.2031 110.766L71.5117 112.348C70.2227 111.816 69.0547 111.551 68.0078 111.551C67.0859 111.551 66.3906 111.695 65.9219 111.984C65.4531 112.273 65.2188 112.672 65.2188 113.18C65.2188 113.523 65.3047 113.816 65.4766 114.059C65.6562 114.301 65.9414 114.531 66.332 114.75C66.7227 114.969 67.4727 115.285 68.582 115.699C70.1055 116.254 71.1328 116.812 71.6641 117.375C72.2031 117.938 72.4727 118.645 72.4727 119.496ZM83.8281 123H81.8828V110.156H83.8281V123ZM81.7188 106.676C81.7188 106.23 81.8281 105.906 82.0469 105.703C82.2656 105.492 82.5391 105.387 82.8672 105.387C83.1797 105.387 83.4492 105.492 83.6758 105.703C83.9023 105.914 84.0156 106.238 84.0156 106.676C84.0156 107.113 83.9023 107.441 83.6758 107.66C83.4492 107.871 83.1797 107.977 82.8672 107.977C82.5391 107.977 82.2656 107.871 82.0469 107.66C81.8281 107.441 81.7188 107.113 81.7188 106.676ZM96.2383 119.496C96.2383 120.691 95.793 121.613 94.9023 122.262C94.0117 122.91 92.7617 123.234 91.1523 123.234C89.4492 123.234 88.1211 122.965 87.168 122.426V120.621C87.7852 120.934 88.4453 121.18 89.1484 121.359C89.8594 121.539 90.543 121.629 91.1992 121.629C92.2148 121.629 92.9961 121.469 93.543 121.148C94.0898 120.82 94.3633 120.324 94.3633 119.66C94.3633 119.16 94.1445 118.734 93.707 118.383C93.2773 118.023 92.4336 117.602 91.1758 117.117C89.9805 116.672 89.1289 116.285 88.6211 115.957C88.1211 115.621 87.7461 115.242 87.4961 114.82C87.2539 114.398 87.1328 113.895 87.1328 113.309C87.1328 112.262 87.5586 111.438 88.4102 110.836C89.2617 110.227 90.4297 109.922 91.9141 109.922C93.2969 109.922 94.6484 110.203 95.9688 110.766L95.2773 112.348C93.9883 111.816 92.8203 111.551 91.7734 111.551C90.8516 111.551 90.1562 111.695 89.6875 111.984C89.2188 112.273 88.9844 112.672 88.9844 113.18C88.9844 113.523 89.0703 113.816 89.2422 114.059C89.4219 114.301 89.707 114.531 90.0977 114.75C90.4883 114.969 91.2383 115.285 92.3477 115.699C93.8711 116.254 94.8984 116.812 95.4297 117.375C95.9688 117.938 96.2383 118.645 96.2383 119.496ZM109.797 121.629C110.141 121.629 110.473 121.605 110.793 121.559C111.113 121.504 111.367 121.449 111.555 121.395V122.883C111.344 122.984 111.031 123.066 110.617 123.129C110.211 123.199 109.844 123.234 109.516 123.234C107.031 123.234 105.789 121.926 105.789 119.309V111.668H103.949V110.73L105.789 109.922L106.609 107.18H107.734V110.156H111.461V111.668H107.734V119.227C107.734 120 107.918 120.594 108.285 121.008C108.652 121.422 109.156 121.629 109.797 121.629ZM122.922 123V114.691C122.922 113.645 122.684 112.863 122.207 112.348C121.73 111.832 120.984 111.574 119.969 111.574C118.617 111.574 117.629 111.941 117.004 112.676C116.387 113.41 116.078 114.613 116.078 116.285V123H114.133V104.766H116.078V110.285C116.078 110.949 116.047 111.5 115.984 111.938H116.102C116.484 111.32 117.027 110.836 117.73 110.484C118.441 110.125 119.25 109.945 120.156 109.945C121.727 109.945 122.902 110.32 123.684 111.07C124.473 111.812 124.867 112.996 124.867 114.621V123H122.922ZM134.301 123.234C132.402 123.234 130.902 122.656 129.801 121.5C128.707 120.344 128.16 118.738 128.16 116.684C128.16 114.613 128.668 112.969 129.684 111.75C130.707 110.531 132.078 109.922 133.797 109.922C135.406 109.922 136.68 110.453 137.617 111.516C138.555 112.57 139.023 113.965 139.023 115.699V116.93H130.176C130.215 118.438 130.594 119.582 131.312 120.363C132.039 121.145 133.059 121.535 134.371 121.535C135.754 121.535 137.121 121.246 138.473 120.668V122.402C137.785 122.699 137.133 122.91 136.516 123.035C135.906 123.168 135.168 123.234 134.301 123.234ZM133.773 111.551C132.742 111.551 131.918 111.887 131.301 112.559C130.691 113.23 130.332 114.16 130.223 115.348H136.938C136.938 114.121 136.664 113.184 136.117 112.535C135.57 111.879 134.789 111.551 133.773 111.551ZM150.531 123H148.586V104.766H150.531V123ZM160.082 123.234C158.184 123.234 156.684 122.656 155.582 121.5C154.488 120.344 153.941 118.738 153.941 116.684C153.941 114.613 154.449 112.969 155.465 111.75C156.488 110.531 157.859 109.922 159.578 109.922C161.188 109.922 162.461 110.453 163.398 111.516C164.336 112.57 164.805 113.965 164.805 115.699V116.93H155.957C155.996 118.438 156.375 119.582 157.094 120.363C157.82 121.145 158.84 121.535 160.152 121.535C161.535 121.535 162.902 121.246 164.254 120.668V122.402C163.566 122.699 162.914 122.91 162.297 123.035C161.688 123.168 160.949 123.234 160.082 123.234ZM159.555 111.551C158.523 111.551 157.699 111.887 157.082 112.559C156.473 113.23 156.113 114.16 156.004 115.348H162.719C162.719 114.121 162.445 113.184 161.898 112.535C161.352 111.879 160.57 111.551 159.555 111.551ZM176.031 123L175.645 121.172H175.551C174.91 121.977 174.27 122.523 173.629 122.812C172.996 123.094 172.203 123.234 171.25 123.234C169.977 123.234 168.977 122.906 168.25 122.25C167.531 121.594 167.172 120.66 167.172 119.449C167.172 116.855 169.246 115.496 173.395 115.371L175.574 115.301V114.504C175.574 113.496 175.355 112.754 174.918 112.277C174.488 111.793 173.797 111.551 172.844 111.551C171.773 111.551 170.562 111.879 169.211 112.535L168.613 111.047C169.246 110.703 169.938 110.434 170.688 110.238C171.445 110.043 172.203 109.945 172.961 109.945C174.492 109.945 175.625 110.285 176.359 110.965C177.102 111.645 177.473 112.734 177.473 114.234V123H176.031ZM171.637 121.629C172.848 121.629 173.797 121.297 174.484 120.633C175.18 119.969 175.527 119.039 175.527 117.844V116.684L173.582 116.766C172.035 116.82 170.918 117.062 170.23 117.492C169.551 117.914 169.211 118.574 169.211 119.473C169.211 120.176 169.422 120.711 169.844 121.078C170.273 121.445 170.871 121.629 171.637 121.629ZM190.234 121.277H190.129C189.23 122.582 187.887 123.234 186.098 123.234C184.418 123.234 183.109 122.66 182.172 121.512C181.242 120.363 180.777 118.73 180.777 116.613C180.777 114.496 181.246 112.852 182.184 111.68C183.121 110.508 184.426 109.922 186.098 109.922C187.84 109.922 189.176 110.555 190.105 111.82H190.258L190.176 110.895L190.129 109.992V104.766H192.074V123H190.492L190.234 121.277ZM186.344 121.605C187.672 121.605 188.633 121.246 189.227 120.527C189.828 119.801 190.129 118.633 190.129 117.023V116.613C190.129 114.793 189.824 113.496 189.215 112.723C188.613 111.941 187.648 111.551 186.32 111.551C185.18 111.551 184.305 111.996 183.695 112.887C183.094 113.77 182.793 115.02 182.793 116.637C182.793 118.277 183.094 119.516 183.695 120.352C184.297 121.188 185.18 121.605 186.344 121.605ZM198.156 123H196.211V110.156H198.156V123ZM196.047 106.676C196.047 106.23 196.156 105.906 196.375 105.703C196.594 105.492 196.867 105.387 197.195 105.387C197.508 105.387 197.777 105.492 198.004 105.703C198.23 105.914 198.344 106.238 198.344 106.676C198.344 107.113 198.23 107.441 198.004 107.66C197.777 107.871 197.508 107.977 197.195 107.977C196.867 107.977 196.594 107.871 196.375 107.66C196.156 107.441 196.047 107.113 196.047 106.676ZM211.07 123V114.691C211.07 113.645 210.832 112.863 210.355 112.348C209.879 111.832 209.133 111.574 208.117 111.574C206.773 111.574 205.789 111.938 205.164 112.664C204.539 113.391 204.227 114.59 204.227 116.262V123H202.281V110.156H203.863L204.18 111.914H204.273C204.672 111.281 205.23 110.793 205.949 110.449C206.668 110.098 207.469 109.922 208.352 109.922C209.898 109.922 211.062 110.297 211.844 111.047C212.625 111.789 213.016 112.98 213.016 114.621V123H211.07ZM227.535 110.156V111.387L225.156 111.668C225.375 111.941 225.57 112.301 225.742 112.746C225.914 113.184 226 113.68 226 114.234C226 115.492 225.57 116.496 224.711 117.246C223.852 117.996 222.672 118.371 221.172 118.371C220.789 118.371 220.43 118.34 220.094 118.277C219.266 118.715 218.852 119.266 218.852 119.93C218.852 120.281 218.996 120.543 219.285 120.715C219.574 120.879 220.07 120.961 220.773 120.961H223.047C224.438 120.961 225.504 121.254 226.246 121.84C226.996 122.426 227.371 123.277 227.371 124.395C227.371 125.816 226.801 126.898 225.66 127.641C224.52 128.391 222.855 128.766 220.668 128.766C218.988 128.766 217.691 128.453 216.777 127.828C215.871 127.203 215.418 126.32 215.418 125.18C215.418 124.398 215.668 123.723 216.168 123.152C216.668 122.582 217.371 122.195 218.277 121.992C217.949 121.844 217.672 121.613 217.445 121.301C217.227 120.988 217.117 120.625 217.117 120.211C217.117 119.742 217.242 119.332 217.492 118.98C217.742 118.629 218.137 118.289 218.676 117.961C218.012 117.688 217.469 117.223 217.047 116.566C216.633 115.91 216.426 115.16 216.426 114.316C216.426 112.91 216.848 111.828 217.691 111.07C218.535 110.305 219.73 109.922 221.277 109.922C221.949 109.922 222.555 110 223.094 110.156H227.535ZM217.293 125.156C217.293 125.852 217.586 126.379 218.172 126.738C218.758 127.098 219.598 127.277 220.691 127.277C222.324 127.277 223.531 127.031 224.312 126.539C225.102 126.055 225.496 125.395 225.496 124.559C225.496 123.863 225.281 123.379 224.852 123.105C224.422 122.84 223.613 122.707 222.426 122.707H220.094C219.211 122.707 218.523 122.918 218.031 123.34C217.539 123.762 217.293 124.367 217.293 125.156ZM218.348 114.27C218.348 115.168 218.602 115.848 219.109 116.309C219.617 116.77 220.324 117 221.23 117C223.129 117 224.078 116.078 224.078 114.234C224.078 112.305 223.117 111.34 221.195 111.34C220.281 111.34 219.578 111.586 219.086 112.078C218.594 112.57 218.348 113.301 218.348 114.27ZM245.148 121.277H245.043C244.145 122.582 242.801 123.234 241.012 123.234C239.332 123.234 238.023 122.66 237.086 121.512C236.156 120.363 235.691 118.73 235.691 116.613C235.691 114.496 236.16 112.852 237.098 111.68C238.035 110.508 239.34 109.922 241.012 109.922C242.754 109.922 244.09 110.555 245.02 111.82H245.172L245.09 110.895L245.043 109.992V104.766H246.988V123H245.406L245.148 121.277ZM241.258 121.605C242.586 121.605 243.547 121.246 244.141 120.527C244.742 119.801 245.043 118.633 245.043 117.023V116.613C245.043 114.793 244.738 113.496 244.129 112.723C243.527 111.941 242.562 111.551 241.234 111.551C240.094 111.551 239.219 111.996 238.609 112.887C238.008 113.77 237.707 115.02 237.707 116.637C237.707 118.277 238.008 119.516 238.609 120.352C239.211 121.188 240.094 121.605 241.258 121.605ZM256.551 123.234C254.652 123.234 253.152 122.656 252.051 121.5C250.957 120.344 250.41 118.738 250.41 116.684C250.41 114.613 250.918 112.969 251.934 111.75C252.957 110.531 254.328 109.922 256.047 109.922C257.656 109.922 258.93 110.453 259.867 111.516C260.805 112.57 261.273 113.965 261.273 115.699V116.93H252.426C252.465 118.438 252.844 119.582 253.562 120.363C254.289 121.145 255.309 121.535 256.621 121.535C258.004 121.535 259.371 121.246 260.723 120.668V122.402C260.035 122.699 259.383 122.91 258.766 123.035C258.156 123.168 257.418 123.234 256.551 123.234ZM256.023 111.551C254.992 111.551 254.168 111.887 253.551 112.559C252.941 113.23 252.582 114.16 252.473 115.348H259.188C259.188 114.121 258.914 113.184 258.367 112.535C257.82 111.879 257.039 111.551 256.023 111.551ZM269.734 123.234C267.875 123.234 266.434 122.664 265.41 121.523C264.395 120.375 263.887 118.754 263.887 116.66C263.887 114.512 264.402 112.852 265.434 111.68C266.473 110.508 267.949 109.922 269.863 109.922C270.48 109.922 271.098 109.988 271.715 110.121C272.332 110.254 272.816 110.41 273.168 110.59L272.57 112.242C272.141 112.07 271.672 111.93 271.164 111.82C270.656 111.703 270.207 111.645 269.816 111.645C267.207 111.645 265.902 113.309 265.902 116.637C265.902 118.215 266.219 119.426 266.852 120.27C267.492 121.113 268.438 121.535 269.688 121.535C270.758 121.535 271.855 121.305 272.98 120.844V122.566C272.121 123.012 271.039 123.234 269.734 123.234ZM281.465 123.234C279.566 123.234 278.066 122.656 276.965 121.5C275.871 120.344 275.324 118.738 275.324 116.684C275.324 114.613 275.832 112.969 276.848 111.75C277.871 110.531 279.242 109.922 280.961 109.922C282.57 109.922 283.844 110.453 284.781 111.516C285.719 112.57 286.188 113.965 286.188 115.699V116.93H277.34C277.379 118.438 277.758 119.582 278.477 120.363C279.203 121.145 280.223 121.535 281.535 121.535C282.918 121.535 284.285 121.246 285.637 120.668V122.402C284.949 122.699 284.297 122.91 283.68 123.035C283.07 123.168 282.332 123.234 281.465 123.234ZM280.938 111.551C279.906 111.551 279.082 111.887 278.465 112.559C277.855 113.23 277.496 114.16 277.387 115.348H284.102C284.102 114.121 283.828 113.184 283.281 112.535C282.734 111.879 281.953 111.551 280.938 111.551ZM298.305 123V114.691C298.305 113.645 298.066 112.863 297.59 112.348C297.113 111.832 296.367 111.574 295.352 111.574C294.008 111.574 293.023 111.938 292.398 112.664C291.773 113.391 291.461 114.59 291.461 116.262V123H289.516V110.156H291.098L291.414 111.914H291.508C291.906 111.281 292.465 110.793 293.184 110.449C293.902 110.098 294.703 109.922 295.586 109.922C297.133 109.922 298.297 110.297 299.078 111.047C299.859 111.789 300.25 112.98 300.25 114.621V123H298.305ZM308.406 121.629C308.75 121.629 309.082 121.605 309.402 121.559C309.723 121.504 309.977 121.449 310.164 121.395V122.883C309.953 122.984 309.641 123.066 309.227 123.129C308.82 123.199 308.453 123.234 308.125 123.234C305.641 123.234 304.398 121.926 304.398 119.309V111.668H302.559V110.73L304.398 109.922L305.219 107.18H306.344V110.156H310.07V111.668H306.344V119.227C306.344 120 306.527 120.594 306.895 121.008C307.262 121.422 307.766 121.629 308.406 121.629ZM318.602 109.922C319.172 109.922 319.684 109.969 320.137 110.062L319.867 111.867C319.336 111.75 318.867 111.691 318.461 111.691C317.422 111.691 316.531 112.113 315.789 112.957C315.055 113.801 314.688 114.852 314.688 116.109V123H312.742V110.156H314.348L314.57 112.535H314.664C315.141 111.699 315.715 111.055 316.387 110.602C317.059 110.148 317.797 109.922 318.602 109.922ZM330.438 123L330.051 121.172H329.957C329.316 121.977 328.676 122.523 328.035 122.812C327.402 123.094 326.609 123.234 325.656 123.234C324.383 123.234 323.383 122.906 322.656 122.25C321.938 121.594 321.578 120.66 321.578 119.449C321.578 116.855 323.652 115.496 327.801 115.371L329.98 115.301V114.504C329.98 113.496 329.762 112.754 329.324 112.277C328.895 111.793 328.203 111.551 327.25 111.551C326.18 111.551 324.969 111.879 323.617 112.535L323.02 111.047C323.652 110.703 324.344 110.434 325.094 110.238C325.852 110.043 326.609 109.945 327.367 109.945C328.898 109.945 330.031 110.285 330.766 110.965C331.508 111.645 331.879 112.734 331.879 114.234V123H330.438ZM326.043 121.629C327.254 121.629 328.203 121.297 328.891 120.633C329.586 119.969 329.934 119.039 329.934 117.844V116.684L327.988 116.766C326.441 116.82 325.324 117.062 324.637 117.492C323.957 117.914 323.617 118.574 323.617 119.473C323.617 120.176 323.828 120.711 324.25 121.078C324.68 121.445 325.277 121.629 326.043 121.629ZM337.844 123H335.898V104.766H337.844V123ZM343.914 123H341.969V110.156H343.914V123ZM341.805 106.676C341.805 106.23 341.914 105.906 342.133 105.703C342.352 105.492 342.625 105.387 342.953 105.387C343.266 105.387 343.535 105.492 343.762 105.703C343.988 105.914 344.102 106.238 344.102 106.676C344.102 107.113 343.988 107.441 343.762 107.66C343.535 107.871 343.266 107.977 342.953 107.977C342.625 107.977 342.352 107.871 342.133 107.66C341.914 107.441 341.805 107.113 341.805 106.676ZM356.254 123H346.938V121.676L353.945 111.668H347.371V110.156H356.078V111.668L349.164 121.488H356.254V123ZM364.691 123.234C362.793 123.234 361.293 122.656 360.191 121.5C359.098 120.344 358.551 118.738 358.551 116.684C358.551 114.613 359.059 112.969 360.074 111.75C361.098 110.531 362.469 109.922 364.188 109.922C365.797 109.922 367.07 110.453 368.008 111.516C368.945 112.57 369.414 113.965 369.414 115.699V116.93H360.566C360.605 118.438 360.984 119.582 361.703 120.363C362.43 121.145 363.449 121.535 364.762 121.535C366.145 121.535 367.512 121.246 368.863 120.668V122.402C368.176 122.699 367.523 122.91 366.906 123.035C366.297 123.168 365.559 123.234 364.691 123.234ZM364.164 111.551C363.133 111.551 362.309 111.887 361.691 112.559C361.082 113.23 360.723 114.16 360.613 115.348H367.328C367.328 114.121 367.055 113.184 366.508 112.535C365.961 111.879 365.18 111.551 364.164 111.551ZM381.484 121.277H381.379C380.48 122.582 379.137 123.234 377.348 123.234C375.668 123.234 374.359 122.66 373.422 121.512C372.492 120.363 372.027 118.73 372.027 116.613C372.027 114.496 372.496 112.852 373.434 111.68C374.371 110.508 375.676 109.922 377.348 109.922C379.09 109.922 380.426 110.555 381.355 111.82H381.508L381.426 110.895L381.379 109.992V104.766H383.324V123H381.742L381.484 121.277ZM377.594 121.605C378.922 121.605 379.883 121.246 380.477 120.527C381.078 119.801 381.379 118.633 381.379 117.023V116.613C381.379 114.793 381.074 113.496 380.465 112.723C379.863 111.941 378.898 111.551 377.57 111.551C376.43 111.551 375.555 111.996 374.945 112.887C374.344 113.77 374.043 115.02 374.043 116.637C374.043 118.277 374.344 119.516 374.945 120.352C375.547 121.188 376.43 121.605 377.594 121.605ZM401.594 123L401.207 121.172H401.113C400.473 121.977 399.832 122.523 399.191 122.812C398.559 123.094 397.766 123.234 396.812 123.234C395.539 123.234 394.539 122.906 393.812 122.25C393.094 121.594 392.734 120.66 392.734 119.449C392.734 116.855 394.809 115.496 398.957 115.371L401.137 115.301V114.504C401.137 113.496 400.918 112.754 400.48 112.277C400.051 111.793 399.359 111.551 398.406 111.551C397.336 111.551 396.125 111.879 394.773 112.535L394.176 111.047C394.809 110.703 395.5 110.434 396.25 110.238C397.008 110.043 397.766 109.945 398.523 109.945C400.055 109.945 401.188 110.285 401.922 110.965C402.664 111.645 403.035 112.734 403.035 114.234V123H401.594ZM397.199 121.629C398.41 121.629 399.359 121.297 400.047 120.633C400.742 119.969 401.09 119.039 401.09 117.844V116.684L399.145 116.766C397.598 116.82 396.48 117.062 395.793 117.492C395.113 117.914 394.773 118.574 394.773 119.473C394.773 120.176 394.984 120.711 395.406 121.078C395.836 121.445 396.434 121.629 397.199 121.629ZM412.914 109.922C413.484 109.922 413.996 109.969 414.449 110.062L414.18 111.867C413.648 111.75 413.18 111.691 412.773 111.691C411.734 111.691 410.844 112.113 410.102 112.957C409.367 113.801 409 114.852 409 116.109V123H407.055V110.156H408.66L408.883 112.535H408.977C409.453 111.699 410.027 111.055 410.699 110.602C411.371 110.148 412.109 109.922 412.914 109.922ZM422.828 109.945C424.516 109.945 425.824 110.523 426.754 111.68C427.691 112.828 428.16 114.457 428.16 116.566C428.16 118.676 427.688 120.316 426.742 121.488C425.805 122.652 424.5 123.234 422.828 123.234C421.992 123.234 421.227 123.082 420.531 122.777C419.844 122.465 419.266 121.988 418.797 121.348H418.656L418.246 123H416.852V104.766H418.797V109.195C418.797 110.188 418.766 111.078 418.703 111.867H418.797C419.703 110.586 421.047 109.945 422.828 109.945ZM422.547 111.574C421.219 111.574 420.262 111.957 419.676 112.723C419.09 113.48 418.797 114.762 418.797 116.566C418.797 118.371 419.098 119.664 419.699 120.445C420.301 121.219 421.266 121.605 422.594 121.605C423.789 121.605 424.68 121.172 425.266 120.305C425.852 119.43 426.145 118.176 426.145 116.543C426.145 114.871 425.852 113.625 425.266 112.805C424.68 111.984 423.773 111.574 422.547 111.574ZM433.516 123H431.57V110.156H433.516V123ZM431.406 106.676C431.406 106.23 431.516 105.906 431.734 105.703C431.953 105.492 432.227 105.387 432.555 105.387C432.867 105.387 433.137 105.492 433.363 105.703C433.59 105.914 433.703 106.238 433.703 106.676C433.703 107.113 433.59 107.441 433.363 107.66C433.137 107.871 432.867 107.977 432.555 107.977C432.227 107.977 431.953 107.871 431.734 107.66C431.516 107.441 431.406 107.113 431.406 106.676ZM441.789 121.629C442.133 121.629 442.465 121.605 442.785 121.559C443.105 121.504 443.359 121.449 443.547 121.395V122.883C443.336 122.984 443.023 123.066 442.609 123.129C442.203 123.199 441.836 123.234 441.508 123.234C439.023 123.234 437.781 121.926 437.781 119.309V111.668H435.941V110.73L437.781 109.922L438.602 107.18H439.727V110.156H443.453V111.668H439.727V119.227C439.727 120 439.91 120.594 440.277 121.008C440.645 121.422 441.148 121.629 441.789 121.629ZM451.984 109.922C452.555 109.922 453.066 109.969 453.52 110.062L453.25 111.867C452.719 111.75 452.25 111.691 451.844 111.691C450.805 111.691 449.914 112.113 449.172 112.957C448.438 113.801 448.07 114.852 448.07 116.109V123H446.125V110.156H447.73L447.953 112.535H448.047C448.523 111.699 449.098 111.055 449.77 110.602C450.441 110.148 451.18 109.922 451.984 109.922ZM463.82 123L463.434 121.172H463.34C462.699 121.977 462.059 122.523 461.418 122.812C460.785 123.094 459.992 123.234 459.039 123.234C457.766 123.234 456.766 122.906 456.039 122.25C455.32 121.594 454.961 120.66 454.961 119.449C454.961 116.855 457.035 115.496 461.184 115.371L463.363 115.301V114.504C463.363 113.496 463.145 112.754 462.707 112.277C462.277 111.793 461.586 111.551 460.633 111.551C459.562 111.551 458.352 111.879 457 112.535L456.402 111.047C457.035 110.703 457.727 110.434 458.477 110.238C459.234 110.043 459.992 109.945 460.75 109.945C462.281 109.945 463.414 110.285 464.148 110.965C464.891 111.645 465.262 112.734 465.262 114.234V123H463.82ZM459.426 121.629C460.637 121.629 461.586 121.297 462.273 120.633C462.969 119.969 463.316 119.039 463.316 117.844V116.684L461.371 116.766C459.824 116.82 458.707 117.062 458.02 117.492C457.34 117.914 457 118.574 457 119.473C457 120.176 457.211 120.711 457.633 121.078C458.062 121.445 458.66 121.629 459.426 121.629ZM473.43 121.629C473.773 121.629 474.105 121.605 474.426 121.559C474.746 121.504 475 121.449 475.188 121.395V122.883C474.977 122.984 474.664 123.066 474.25 123.129C473.844 123.199 473.477 123.234 473.148 123.234C470.664 123.234 469.422 121.926 469.422 119.309V111.668H467.582V110.73L469.422 109.922L470.242 107.18H471.367V110.156H475.094V111.668H471.367V119.227C471.367 120 471.551 120.594 471.918 121.008C472.285 121.422 472.789 121.629 473.43 121.629ZM479.711 123H477.766V110.156H479.711V123ZM477.602 106.676C477.602 106.23 477.711 105.906 477.93 105.703C478.148 105.492 478.422 105.387 478.75 105.387C479.062 105.387 479.332 105.492 479.559 105.703C479.785 105.914 479.898 106.238 479.898 106.676C479.898 107.113 479.785 107.441 479.559 107.66C479.332 107.871 479.062 107.977 478.75 107.977C478.422 107.977 478.148 107.871 477.93 107.66C477.711 107.441 477.602 107.113 477.602 106.676ZM494.922 116.566C494.922 118.66 494.395 120.297 493.34 121.477C492.285 122.648 490.828 123.234 488.969 123.234C487.82 123.234 486.801 122.965 485.91 122.426C485.02 121.887 484.332 121.113 483.848 120.105C483.363 119.098 483.121 117.918 483.121 116.566C483.121 114.473 483.645 112.844 484.691 111.68C485.738 110.508 487.191 109.922 489.051 109.922C490.848 109.922 492.273 110.52 493.328 111.715C494.391 112.91 494.922 114.527 494.922 116.566ZM485.137 116.566C485.137 118.207 485.465 119.457 486.121 120.316C486.777 121.176 487.742 121.605 489.016 121.605C490.289 121.605 491.254 121.18 491.91 120.328C492.574 119.469 492.906 118.215 492.906 116.566C492.906 114.934 492.574 113.695 491.91 112.852C491.254 112 490.281 111.574 488.992 111.574C487.719 111.574 486.758 111.992 486.109 112.828C485.461 113.664 485.137 114.91 485.137 116.566ZM507.133 123V114.691C507.133 113.645 506.895 112.863 506.418 112.348C505.941 111.832 505.195 111.574 504.18 111.574C502.836 111.574 501.852 111.938 501.227 112.664C500.602 113.391 500.289 114.59 500.289 116.262V123H498.344V110.156H499.926L500.242 111.914H500.336C500.734 111.281 501.293 110.793 502.012 110.449C502.73 110.098 503.531 109.922 504.414 109.922C505.961 109.922 507.125 110.297 507.906 111.047C508.688 111.789 509.078 112.98 509.078 114.621V123H507.133ZM527.605 119.496C527.605 120.691 527.16 121.613 526.27 122.262C525.379 122.91 524.129 123.234 522.52 123.234C520.816 123.234 519.488 122.965 518.535 122.426V120.621C519.152 120.934 519.812 121.18 520.516 121.359C521.227 121.539 521.91 121.629 522.566 121.629C523.582 121.629 524.363 121.469 524.91 121.148C525.457 120.82 525.73 120.324 525.73 119.66C525.73 119.16 525.512 118.734 525.074 118.383C524.645 118.023 523.801 117.602 522.543 117.117C521.348 116.672 520.496 116.285 519.988 115.957C519.488 115.621 519.113 115.242 518.863 114.82C518.621 114.398 518.5 113.895 518.5 113.309C518.5 112.262 518.926 111.438 519.777 110.836C520.629 110.227 521.797 109.922 523.281 109.922C524.664 109.922 526.016 110.203 527.336 110.766L526.645 112.348C525.355 111.816 524.188 111.551 523.141 111.551C522.219 111.551 521.523 111.695 521.055 111.984C520.586 112.273 520.352 112.672 520.352 113.18C520.352 113.523 520.438 113.816 520.609 114.059C520.789 114.301 521.074 114.531 521.465 114.75C521.855 114.969 522.605 115.285 523.715 115.699C525.238 116.254 526.266 116.812 526.797 117.375C527.336 117.938 527.605 118.645 527.605 119.496ZM536.207 123.234C534.309 123.234 532.809 122.656 531.707 121.5C530.613 120.344 530.066 118.738 530.066 116.684C530.066 114.613 530.574 112.969 531.59 111.75C532.613 110.531 533.984 109.922 535.703 109.922C537.312 109.922 538.586 110.453 539.523 111.516C540.461 112.57 540.93 113.965 540.93 115.699V116.93H532.082C532.121 118.438 532.5 119.582 533.219 120.363C533.945 121.145 534.965 121.535 536.277 121.535C537.66 121.535 539.027 121.246 540.379 120.668V122.402C539.691 122.699 539.039 122.91 538.422 123.035C537.812 123.168 537.074 123.234 536.207 123.234ZM535.68 111.551C534.648 111.551 533.824 111.887 533.207 112.559C532.598 113.23 532.238 114.16 532.129 115.348H538.844C538.844 114.121 538.57 113.184 538.023 112.535C537.477 111.879 536.695 111.551 535.68 111.551ZM550.117 109.922C550.688 109.922 551.199 109.969 551.652 110.062L551.383 111.867C550.852 111.75 550.383 111.691 549.977 111.691C548.938 111.691 548.047 112.113 547.305 112.957C546.57 113.801 546.203 114.852 546.203 116.109V123H544.258V110.156H545.863L546.086 112.535H546.18C546.656 111.699 547.23 111.055 547.902 110.602C548.574 110.148 549.312 109.922 550.117 109.922ZM556.867 123L551.992 110.156H554.078L556.844 117.773C557.469 119.555 557.836 120.711 557.945 121.242H558.039C558.125 120.828 558.395 119.973 558.848 118.676C559.309 117.371 560.336 114.531 561.93 110.156H564.016L559.141 123H556.867ZM568.023 123H566.078V110.156H568.023V123ZM565.914 106.676C565.914 106.23 566.023 105.906 566.242 105.703C566.461 105.492 566.734 105.387 567.062 105.387C567.375 105.387 567.645 105.492 567.871 105.703C568.098 105.914 568.211 106.238 568.211 106.676C568.211 107.113 568.098 107.441 567.871 107.66C567.645 107.871 567.375 107.977 567.062 107.977C566.734 107.977 566.461 107.871 566.242 107.66C566.023 107.441 565.914 107.113 565.914 106.676ZM577.281 123.234C575.422 123.234 573.98 122.664 572.957 121.523C571.941 120.375 571.434 118.754 571.434 116.66C571.434 114.512 571.949 112.852 572.98 111.68C574.02 110.508 575.496 109.922 577.41 109.922C578.027 109.922 578.645 109.988 579.262 110.121C579.879 110.254 580.363 110.41 580.715 110.59L580.117 112.242C579.688 112.07 579.219 111.93 578.711 111.82C578.203 111.703 577.754 111.645 577.363 111.645C574.754 111.645 573.449 113.309 573.449 116.637C573.449 118.215 573.766 119.426 574.398 120.27C575.039 121.113 575.984 121.535 577.234 121.535C578.305 121.535 579.402 121.305 580.527 120.844V122.566C579.668 123.012 578.586 123.234 577.281 123.234ZM589.012 123.234C587.113 123.234 585.613 122.656 584.512 121.5C583.418 120.344 582.871 118.738 582.871 116.684C582.871 114.613 583.379 112.969 584.395 111.75C585.418 110.531 586.789 109.922 588.508 109.922C590.117 109.922 591.391 110.453 592.328 111.516C593.266 112.57 593.734 113.965 593.734 115.699V116.93H584.887C584.926 118.438 585.305 119.582 586.023 120.363C586.75 121.145 587.77 121.535 589.082 121.535C590.465 121.535 591.832 121.246 593.184 120.668V122.402C592.496 122.699 591.844 122.91 591.227 123.035C590.617 123.168 589.879 123.234 589.012 123.234ZM588.484 111.551C587.453 111.551 586.629 111.887 586.012 112.559C585.402 113.23 585.043 114.16 584.934 115.348H591.648C591.648 114.121 591.375 113.184 590.828 112.535C590.281 111.879 589.5 111.551 588.484 111.551ZM185.43 144.668H182.16V156H180.215V144.668H177.918V143.789L180.215 143.086V142.371C180.215 139.215 181.594 137.637 184.352 137.637C185.031 137.637 185.828 137.773 186.742 138.047L186.238 139.605C185.488 139.363 184.848 139.242 184.316 139.242C183.582 139.242 183.039 139.488 182.688 139.98C182.336 140.465 182.16 141.246 182.16 142.324V143.156H185.43V144.668ZM198.859 149.566C198.859 151.66 198.332 153.297 197.277 154.477C196.223 155.648 194.766 156.234 192.906 156.234C191.758 156.234 190.738 155.965 189.848 155.426C188.957 154.887 188.27 154.113 187.785 153.105C187.301 152.098 187.059 150.918 187.059 149.566C187.059 147.473 187.582 145.844 188.629 144.68C189.676 143.508 191.129 142.922 192.988 142.922C194.785 142.922 196.211 143.52 197.266 144.715C198.328 145.91 198.859 147.527 198.859 149.566ZM189.074 149.566C189.074 151.207 189.402 152.457 190.059 153.316C190.715 154.176 191.68 154.605 192.953 154.605C194.227 154.605 195.191 154.18 195.848 153.328C196.512 152.469 196.844 151.215 196.844 149.566C196.844 147.934 196.512 146.695 195.848 145.852C195.191 145 194.219 144.574 192.93 144.574C191.656 144.574 190.695 144.992 190.047 145.828C189.398 146.664 189.074 147.91 189.074 149.566ZM208.141 142.922C208.711 142.922 209.223 142.969 209.676 143.062L209.406 144.867C208.875 144.75 208.406 144.691 208 144.691C206.961 144.691 206.07 145.113 205.328 145.957C204.594 146.801 204.227 147.852 204.227 149.109V156H202.281V143.156H203.887L204.109 145.535H204.203C204.68 144.699 205.254 144.055 205.926 143.602C206.598 143.148 207.336 142.922 208.141 142.922ZM222.461 154.629C222.805 154.629 223.137 154.605 223.457 154.559C223.777 154.504 224.031 154.449 224.219 154.395V155.883C224.008 155.984 223.695 156.066 223.281 156.129C222.875 156.199 222.508 156.234 222.18 156.234C219.695 156.234 218.453 154.926 218.453 152.309V144.668H216.613V143.73L218.453 142.922L219.273 140.18H220.398V143.156H224.125V144.668H220.398V152.227C220.398 153 220.582 153.594 220.949 154.008C221.316 154.422 221.82 154.629 222.461 154.629ZM235.586 156V147.691C235.586 146.645 235.348 145.863 234.871 145.348C234.395 144.832 233.648 144.574 232.633 144.574C231.281 144.574 230.293 144.941 229.668 145.676C229.051 146.41 228.742 147.613 228.742 149.285V156H226.797V137.766H228.742V143.285C228.742 143.949 228.711 144.5 228.648 144.938H228.766C229.148 144.32 229.691 143.836 230.395 143.484C231.105 143.125 231.914 142.945 232.82 142.945C234.391 142.945 235.566 143.32 236.348 144.07C237.137 144.812 237.531 145.996 237.531 147.621V156H235.586ZM246.965 156.234C245.066 156.234 243.566 155.656 242.465 154.5C241.371 153.344 240.824 151.738 240.824 149.684C240.824 147.613 241.332 145.969 242.348 144.75C243.371 143.531 244.742 142.922 246.461 142.922C248.07 142.922 249.344 143.453 250.281 144.516C251.219 145.57 251.688 146.965 251.688 148.699V149.93H242.84C242.879 151.438 243.258 152.582 243.977 153.363C244.703 154.145 245.723 154.535 247.035 154.535C248.418 154.535 249.785 154.246 251.137 153.668V155.402C250.449 155.699 249.797 155.91 249.18 156.035C248.57 156.168 247.832 156.234 246.965 156.234ZM246.438 144.551C245.406 144.551 244.582 144.887 243.965 145.559C243.355 146.23 242.996 147.16 242.887 148.348H249.602C249.602 147.121 249.328 146.184 248.781 145.535C248.234 144.879 247.453 144.551 246.438 144.551ZM269.992 154.277H269.887C268.988 155.582 267.645 156.234 265.855 156.234C264.176 156.234 262.867 155.66 261.93 154.512C261 153.363 260.535 151.73 260.535 149.613C260.535 147.496 261.004 145.852 261.941 144.68C262.879 143.508 264.184 142.922 265.855 142.922C267.598 142.922 268.934 143.555 269.863 144.82H270.016L269.934 143.895L269.887 142.992V137.766H271.832V156H270.25L269.992 154.277ZM266.102 154.605C267.43 154.605 268.391 154.246 268.984 153.527C269.586 152.801 269.887 151.633 269.887 150.023V149.613C269.887 147.793 269.582 146.496 268.973 145.723C268.371 144.941 267.406 144.551 266.078 144.551C264.938 144.551 264.062 144.996 263.453 145.887C262.852 146.77 262.551 148.02 262.551 149.637C262.551 151.277 262.852 152.516 263.453 153.352C264.055 154.188 264.938 154.605 266.102 154.605ZM277.914 156H275.969V143.156H277.914V156ZM275.805 139.676C275.805 139.23 275.914 138.906 276.133 138.703C276.352 138.492 276.625 138.387 276.953 138.387C277.266 138.387 277.535 138.492 277.762 138.703C277.988 138.914 278.102 139.238 278.102 139.676C278.102 140.113 277.988 140.441 277.762 140.66C277.535 140.871 277.266 140.977 276.953 140.977C276.625 140.977 276.352 140.871 276.133 140.66C275.914 140.441 275.805 140.113 275.805 139.676ZM290.324 152.496C290.324 153.691 289.879 154.613 288.988 155.262C288.098 155.91 286.848 156.234 285.238 156.234C283.535 156.234 282.207 155.965 281.254 155.426V153.621C281.871 153.934 282.531 154.18 283.234 154.359C283.945 154.539 284.629 154.629 285.285 154.629C286.301 154.629 287.082 154.469 287.629 154.148C288.176 153.82 288.449 153.324 288.449 152.66C288.449 152.16 288.23 151.734 287.793 151.383C287.363 151.023 286.52 150.602 285.262 150.117C284.066 149.672 283.215 149.285 282.707 148.957C282.207 148.621 281.832 148.242 281.582 147.82C281.34 147.398 281.219 146.895 281.219 146.309C281.219 145.262 281.645 144.438 282.496 143.836C283.348 143.227 284.516 142.922 286 142.922C287.383 142.922 288.734 143.203 290.055 143.766L289.363 145.348C288.074 144.816 286.906 144.551 285.859 144.551C284.938 144.551 284.242 144.695 283.773 144.984C283.305 145.273 283.07 145.672 283.07 146.18C283.07 146.523 283.156 146.816 283.328 147.059C283.508 147.301 283.793 147.531 284.184 147.75C284.574 147.969 285.324 148.285 286.434 148.699C287.957 149.254 288.984 149.812 289.516 150.375C290.055 150.938 290.324 151.645 290.324 152.496ZM299.477 156.234C298.641 156.234 297.875 156.082 297.18 155.777C296.492 155.465 295.914 154.988 295.445 154.348H295.305C295.398 155.098 295.445 155.809 295.445 156.48V161.766H293.5V143.156H295.082L295.352 144.914H295.445C295.945 144.211 296.527 143.703 297.191 143.391C297.855 143.078 298.617 142.922 299.477 142.922C301.18 142.922 302.492 143.504 303.414 144.668C304.344 145.832 304.809 147.465 304.809 149.566C304.809 151.676 304.336 153.316 303.391 154.488C302.453 155.652 301.148 156.234 299.477 156.234ZM299.195 144.574C297.883 144.574 296.934 144.938 296.348 145.664C295.762 146.391 295.461 147.547 295.445 149.133V149.566C295.445 151.371 295.746 152.664 296.348 153.445C296.949 154.219 297.914 154.605 299.242 154.605C300.352 154.605 301.219 154.156 301.844 153.258C302.477 152.359 302.793 151.121 302.793 149.543C302.793 147.941 302.477 146.715 301.844 145.863C301.219 145.004 300.336 144.574 299.195 144.574ZM310.047 143.156V151.488C310.047 152.535 310.285 153.316 310.762 153.832C311.238 154.348 311.984 154.605 313 154.605C314.344 154.605 315.324 154.238 315.941 153.504C316.566 152.77 316.879 151.57 316.879 149.906V143.156H318.824V156H317.219L316.938 154.277H316.832C316.434 154.91 315.879 155.395 315.168 155.73C314.465 156.066 313.66 156.234 312.754 156.234C311.191 156.234 310.02 155.863 309.238 155.121C308.465 154.379 308.078 153.191 308.078 151.559V143.156H310.047ZM327.109 154.629C327.453 154.629 327.785 154.605 328.105 154.559C328.426 154.504 328.68 154.449 328.867 154.395V155.883C328.656 155.984 328.344 156.066 327.93 156.129C327.523 156.199 327.156 156.234 326.828 156.234C324.344 156.234 323.102 154.926 323.102 152.309V144.668H321.262V143.73L323.102 142.922L323.922 140.18H325.047V143.156H328.773V144.668H325.047V152.227C325.047 153 325.23 153.594 325.598 154.008C325.965 154.422 326.469 154.629 327.109 154.629ZM336.871 156.234C334.973 156.234 333.473 155.656 332.371 154.5C331.277 153.344 330.73 151.738 330.73 149.684C330.73 147.613 331.238 145.969 332.254 144.75C333.277 143.531 334.648 142.922 336.367 142.922C337.977 142.922 339.25 143.453 340.188 144.516C341.125 145.57 341.594 146.965 341.594 148.699V149.93H332.746C332.785 151.438 333.164 152.582 333.883 153.363C334.609 154.145 335.629 154.535 336.941 154.535C338.324 154.535 339.691 154.246 341.043 153.668V155.402C340.355 155.699 339.703 155.91 339.086 156.035C338.477 156.168 337.738 156.234 336.871 156.234ZM336.344 144.551C335.312 144.551 334.488 144.887 333.871 145.559C333.262 146.23 332.902 147.16 332.793 148.348H339.508C339.508 147.121 339.234 146.184 338.688 145.535C338.141 144.879 337.359 144.551 336.344 144.551ZM353.207 152.496C353.207 153.691 352.762 154.613 351.871 155.262C350.98 155.91 349.73 156.234 348.121 156.234C346.418 156.234 345.09 155.965 344.137 155.426V153.621C344.754 153.934 345.414 154.18 346.117 154.359C346.828 154.539 347.512 154.629 348.168 154.629C349.184 154.629 349.965 154.469 350.512 154.148C351.059 153.82 351.332 153.324 351.332 152.66C351.332 152.16 351.113 151.734 350.676 151.383C350.246 151.023 349.402 150.602 348.145 150.117C346.949 149.672 346.098 149.285 345.59 148.957C345.09 148.621 344.715 148.242 344.465 147.82C344.223 147.398 344.102 146.895 344.102 146.309C344.102 145.262 344.527 144.438 345.379 143.836C346.23 143.227 347.398 142.922 348.883 142.922C350.266 142.922 351.617 143.203 352.938 143.766L352.246 145.348C350.957 144.816 349.789 144.551 348.742 144.551C347.82 144.551 347.125 144.695 346.656 144.984C346.188 145.273 345.953 145.672 345.953 146.18C345.953 146.523 346.039 146.816 346.211 147.059C346.391 147.301 346.676 147.531 347.066 147.75C347.457 147.969 348.207 148.285 349.316 148.699C350.84 149.254 351.867 149.812 352.398 150.375C352.938 150.938 353.207 151.645 353.207 152.496ZM373.703 149.566C373.703 151.66 373.176 153.297 372.121 154.477C371.066 155.648 369.609 156.234 367.75 156.234C366.602 156.234 365.582 155.965 364.691 155.426C363.801 154.887 363.113 154.113 362.629 153.105C362.145 152.098 361.902 150.918 361.902 149.566C361.902 147.473 362.426 145.844 363.473 144.68C364.52 143.508 365.973 142.922 367.832 142.922C369.629 142.922 371.055 143.52 372.109 144.715C373.172 145.91 373.703 147.527 373.703 149.566ZM363.918 149.566C363.918 151.207 364.246 152.457 364.902 153.316C365.559 154.176 366.523 154.605 367.797 154.605C369.07 154.605 370.035 154.18 370.691 153.328C371.355 152.469 371.688 151.215 371.688 149.566C371.688 147.934 371.355 146.695 370.691 145.852C370.035 145 369.062 144.574 367.773 144.574C366.5 144.574 365.539 144.992 364.891 145.828C364.242 146.664 363.918 147.91 363.918 149.566ZM382.914 144.668H379.645V156H377.699V144.668H375.402V143.789L377.699 143.086V142.371C377.699 139.215 379.078 137.637 381.836 137.637C382.516 137.637 383.312 137.773 384.227 138.047L383.723 139.605C382.973 139.363 382.332 139.242 381.801 139.242C381.066 139.242 380.523 139.488 380.172 139.98C379.82 140.465 379.645 141.246 379.645 142.324V143.156H382.914V144.668ZM395.641 154.629C395.984 154.629 396.316 154.605 396.637 154.559C396.957 154.504 397.211 154.449 397.398 154.395V155.883C397.188 155.984 396.875 156.066 396.461 156.129C396.055 156.199 395.688 156.234 395.359 156.234C392.875 156.234 391.633 154.926 391.633 152.309V144.668H389.793V143.73L391.633 142.922L392.453 140.18H393.578V143.156H397.305V144.668H393.578V152.227C393.578 153 393.762 153.594 394.129 154.008C394.496 154.422 395 154.629 395.641 154.629ZM408.766 156V147.691C408.766 146.645 408.527 145.863 408.051 145.348C407.574 144.832 406.828 144.574 405.812 144.574C404.461 144.574 403.473 144.941 402.848 145.676C402.23 146.41 401.922 147.613 401.922 149.285V156H399.977V137.766H401.922V143.285C401.922 143.949 401.891 144.5 401.828 144.938H401.945C402.328 144.32 402.871 143.836 403.574 143.484C404.285 143.125 405.094 142.945 406 142.945C407.57 142.945 408.746 143.32 409.527 144.07C410.316 144.812 410.711 145.996 410.711 147.621V156H408.766ZM420.145 156.234C418.246 156.234 416.746 155.656 415.645 154.5C414.551 153.344 414.004 151.738 414.004 149.684C414.004 147.613 414.512 145.969 415.527 144.75C416.551 143.531 417.922 142.922 419.641 142.922C421.25 142.922 422.523 143.453 423.461 144.516C424.398 145.57 424.867 146.965 424.867 148.699V149.93H416.02C416.059 151.438 416.438 152.582 417.156 153.363C417.883 154.145 418.902 154.535 420.215 154.535C421.598 154.535 422.965 154.246 424.316 153.668V155.402C423.629 155.699 422.977 155.91 422.359 156.035C421.75 156.168 421.012 156.234 420.145 156.234ZM419.617 144.551C418.586 144.551 417.762 144.887 417.145 145.559C416.535 146.23 416.176 147.16 416.066 148.348H422.781C422.781 147.121 422.508 146.184 421.961 145.535C421.414 144.879 420.633 144.551 419.617 144.551ZM443.219 156V147.691C443.219 146.645 442.98 145.863 442.504 145.348C442.027 144.832 441.281 144.574 440.266 144.574C438.922 144.574 437.938 144.938 437.312 145.664C436.688 146.391 436.375 147.59 436.375 149.262V156H434.43V143.156H436.012L436.328 144.914H436.422C436.82 144.281 437.379 143.793 438.098 143.449C438.816 143.098 439.617 142.922 440.5 142.922C442.047 142.922 443.211 143.297 443.992 144.047C444.773 144.789 445.164 145.98 445.164 147.621V156H443.219ZM454.598 156.234C452.699 156.234 451.199 155.656 450.098 154.5C449.004 153.344 448.457 151.738 448.457 149.684C448.457 147.613 448.965 145.969 449.98 144.75C451.004 143.531 452.375 142.922 454.094 142.922C455.703 142.922 456.977 143.453 457.914 144.516C458.852 145.57 459.32 146.965 459.32 148.699V149.93H450.473C450.512 151.438 450.891 152.582 451.609 153.363C452.336 154.145 453.355 154.535 454.668 154.535C456.051 154.535 457.418 154.246 458.77 153.668V155.402C458.082 155.699 457.43 155.91 456.812 156.035C456.203 156.168 455.465 156.234 454.598 156.234ZM454.07 144.551C453.039 144.551 452.215 144.887 451.598 145.559C450.988 146.23 450.629 147.16 450.52 148.348H457.234C457.234 147.121 456.961 146.184 456.414 145.535C455.867 144.879 455.086 144.551 454.07 144.551ZM473.137 156L470.781 148.465C470.633 148.004 470.355 146.957 469.949 145.324H469.855C469.543 146.691 469.27 147.746 469.035 148.488L466.609 156H464.359L460.855 143.156H462.895C463.723 146.383 464.352 148.84 464.781 150.527C465.219 152.215 465.469 153.352 465.531 153.938H465.625C465.711 153.492 465.848 152.918 466.035 152.215C466.23 151.504 466.398 150.941 466.539 150.527L468.895 143.156H471.004L473.301 150.527C473.738 151.871 474.035 153 474.191 153.914H474.285C474.316 153.633 474.398 153.199 474.531 152.613C474.672 152.027 475.488 148.875 476.98 143.156H478.996L475.445 156H473.137ZM492.988 156.234C491.09 156.234 489.59 155.656 488.488 154.5C487.395 153.344 486.848 151.738 486.848 149.684C486.848 147.613 487.355 145.969 488.371 144.75C489.395 143.531 490.766 142.922 492.484 142.922C494.094 142.922 495.367 143.453 496.305 144.516C497.242 145.57 497.711 146.965 497.711 148.699V149.93H488.863C488.902 151.438 489.281 152.582 490 153.363C490.727 154.145 491.746 154.535 493.059 154.535C494.441 154.535 495.809 154.246 497.16 153.668V155.402C496.473 155.699 495.82 155.91 495.203 156.035C494.594 156.168 493.855 156.234 492.988 156.234ZM492.461 144.551C491.43 144.551 490.605 144.887 489.988 145.559C489.379 146.23 489.02 147.16 488.91 148.348H495.625C495.625 147.121 495.352 146.184 494.805 145.535C494.258 144.879 493.477 144.551 492.461 144.551ZM506.172 156.234C504.312 156.234 502.871 155.664 501.848 154.523C500.832 153.375 500.324 151.754 500.324 149.66C500.324 147.512 500.84 145.852 501.871 144.68C502.91 143.508 504.387 142.922 506.301 142.922C506.918 142.922 507.535 142.988 508.152 143.121C508.77 143.254 509.254 143.41 509.605 143.59L509.008 145.242C508.578 145.07 508.109 144.93 507.602 144.82C507.094 144.703 506.645 144.645 506.254 144.645C503.645 144.645 502.34 146.309 502.34 149.637C502.34 151.215 502.656 152.426 503.289 153.27C503.93 154.113 504.875 154.535 506.125 154.535C507.195 154.535 508.293 154.305 509.418 153.844V155.566C508.559 156.012 507.477 156.234 506.172 156.234ZM523.562 149.566C523.562 151.66 523.035 153.297 521.98 154.477C520.926 155.648 519.469 156.234 517.609 156.234C516.461 156.234 515.441 155.965 514.551 155.426C513.66 154.887 512.973 154.113 512.488 153.105C512.004 152.098 511.762 150.918 511.762 149.566C511.762 147.473 512.285 145.844 513.332 144.68C514.379 143.508 515.832 142.922 517.691 142.922C519.488 142.922 520.914 143.52 521.969 144.715C523.031 145.91 523.562 147.527 523.562 149.566ZM513.777 149.566C513.777 151.207 514.105 152.457 514.762 153.316C515.418 154.176 516.383 154.605 517.656 154.605C518.93 154.605 519.895 154.18 520.551 153.328C521.215 152.469 521.547 151.215 521.547 149.566C521.547 147.934 521.215 146.695 520.551 145.852C519.895 145 518.922 144.574 517.633 144.574C516.359 144.574 515.398 144.992 514.75 145.828C514.102 146.664 513.777 147.91 513.777 149.566ZM535.773 156V147.691C535.773 146.645 535.535 145.863 535.059 145.348C534.582 144.832 533.836 144.574 532.82 144.574C531.477 144.574 530.492 144.938 529.867 145.664C529.242 146.391 528.93 147.59 528.93 149.262V156H526.984V143.156H528.566L528.883 144.914H528.977C529.375 144.281 529.934 143.793 530.652 143.449C531.371 143.098 532.172 142.922 533.055 142.922C534.602 142.922 535.766 143.297 536.547 144.047C537.328 144.789 537.719 145.98 537.719 147.621V156H535.773ZM552.812 149.566C552.812 151.66 552.285 153.297 551.23 154.477C550.176 155.648 548.719 156.234 546.859 156.234C545.711 156.234 544.691 155.965 543.801 155.426C542.91 154.887 542.223 154.113 541.738 153.105C541.254 152.098 541.012 150.918 541.012 149.566C541.012 147.473 541.535 145.844 542.582 144.68C543.629 143.508 545.082 142.922 546.941 142.922C548.738 142.922 550.164 143.52 551.219 144.715C552.281 145.91 552.812 147.527 552.812 149.566ZM543.027 149.566C543.027 151.207 543.355 152.457 544.012 153.316C544.668 154.176 545.633 154.605 546.906 154.605C548.18 154.605 549.145 154.18 549.801 153.328C550.465 152.469 550.797 151.215 550.797 149.566C550.797 147.934 550.465 146.695 549.801 145.852C549.145 145 548.172 144.574 546.883 144.574C545.609 144.574 544.648 144.992 544 145.828C543.352 146.664 543.027 147.91 543.027 149.566ZM572.605 156V147.645C572.605 146.621 572.387 145.855 571.949 145.348C571.512 144.832 570.832 144.574 569.91 144.574C568.699 144.574 567.805 144.922 567.227 145.617C566.648 146.312 566.359 147.383 566.359 148.828V156H564.414V147.645C564.414 146.621 564.195 145.855 563.758 145.348C563.32 144.832 562.637 144.574 561.707 144.574C560.488 144.574 559.594 144.941 559.023 145.676C558.461 146.402 558.18 147.598 558.18 149.262V156H556.234V143.156H557.816L558.133 144.914H558.227C558.594 144.289 559.109 143.801 559.773 143.449C560.445 143.098 561.195 142.922 562.023 142.922C564.031 142.922 565.344 143.648 565.961 145.102H566.055C566.438 144.43 566.992 143.898 567.719 143.508C568.445 143.117 569.273 142.922 570.203 142.922C571.656 142.922 572.742 143.297 573.461 144.047C574.188 144.789 574.551 145.98 574.551 147.621V156H572.605ZM576.531 143.156H578.617L581.43 150.48C582.047 152.152 582.43 153.359 582.578 154.102H582.672C582.773 153.703 582.984 153.023 583.305 152.062C583.633 151.094 584.695 148.125 586.492 143.156H588.578L583.059 157.781C582.512 159.227 581.871 160.25 581.137 160.852C580.41 161.461 579.516 161.766 578.453 161.766C577.859 161.766 577.273 161.699 576.695 161.566V160.008C577.125 160.102 577.605 160.148 578.137 160.148C579.473 160.148 580.426 159.398 580.996 157.898L581.711 156.07L576.531 143.156ZM590.383 154.758C590.383 154.234 590.5 153.84 590.734 153.574C590.977 153.301 591.32 153.164 591.766 153.164C592.219 153.164 592.57 153.301 592.82 153.574C593.078 153.84 593.207 154.234 593.207 154.758C593.207 155.266 593.078 155.656 592.82 155.93C592.562 156.203 592.211 156.34 591.766 156.34C591.367 156.34 591.035 156.219 590.77 155.977C590.512 155.727 590.383 155.32 590.383 154.758Z" fill="#BECCE5"/>
<path d="M219.227 212H217.898V200.578H224.266V201.758H219.227V205.938H223.961V207.117H219.227V212ZM233.344 212L231.922 208.367H227.344L225.938 212H224.594L229.109 200.531H230.227L234.719 212H233.344ZM231.508 207.172L230.18 203.633C230.008 203.185 229.831 202.635 229.648 201.984C229.534 202.484 229.37 203.034 229.156 203.633L227.812 207.172H231.508ZM242.734 208.961C242.734 209.966 242.37 210.75 241.641 211.312C240.911 211.875 239.922 212.156 238.672 212.156C237.318 212.156 236.276 211.982 235.547 211.633V210.352C236.016 210.549 236.526 210.706 237.078 210.82C237.63 210.935 238.177 210.992 238.719 210.992C239.604 210.992 240.271 210.826 240.719 210.492C241.167 210.154 241.391 209.685 241.391 209.086C241.391 208.69 241.31 208.367 241.148 208.117C240.992 207.862 240.727 207.628 240.352 207.414C239.982 207.201 239.417 206.958 238.656 206.688C237.594 206.307 236.833 205.857 236.375 205.336C235.922 204.815 235.695 204.135 235.695 203.297C235.695 202.417 236.026 201.716 236.688 201.195C237.349 200.674 238.224 200.414 239.312 200.414C240.448 200.414 241.492 200.622 242.445 201.039L242.031 202.195C241.089 201.799 240.172 201.602 239.281 201.602C238.578 201.602 238.029 201.753 237.633 202.055C237.237 202.357 237.039 202.776 237.039 203.312C237.039 203.708 237.112 204.034 237.258 204.289C237.404 204.539 237.648 204.771 237.992 204.984C238.341 205.193 238.872 205.424 239.586 205.68C240.784 206.107 241.607 206.565 242.055 207.055C242.508 207.544 242.734 208.18 242.734 208.961ZM248.586 212H247.258V201.758H243.641V200.578H252.203V201.758H248.586V212ZM295.203 212L293.781 208.367H289.203L287.797 212H286.453L290.969 200.531H292.086L296.578 212H295.203ZM293.367 207.172L292.039 203.633C291.867 203.185 291.69 202.635 291.508 201.984C291.393 202.484 291.229 203.034 291.016 203.633L289.672 207.172H293.367ZM299.477 212H298.148V200.578H304.516V201.758H299.477V205.938H304.211V207.117H299.477V212ZM307.742 212H306.414V200.578H312.781V201.758H307.742V205.938H312.477V207.117H307.742V212ZM324.594 206.273C324.594 208.102 324.13 209.539 323.203 210.586C322.281 211.633 320.997 212.156 319.352 212.156C317.669 212.156 316.37 211.643 315.453 210.617C314.542 209.586 314.086 208.133 314.086 206.258C314.086 204.398 314.544 202.958 315.461 201.938C316.378 200.911 317.68 200.398 319.367 200.398C321.008 200.398 322.289 200.919 323.211 201.961C324.133 203.003 324.594 204.44 324.594 206.273ZM315.492 206.273C315.492 207.82 315.82 208.995 316.477 209.797C317.138 210.594 318.096 210.992 319.352 210.992C320.617 210.992 321.573 210.594 322.219 209.797C322.865 209 323.188 207.826 323.188 206.273C323.188 204.737 322.865 203.573 322.219 202.781C321.578 201.984 320.628 201.586 319.367 201.586C318.102 201.586 317.138 201.987 316.477 202.789C315.82 203.586 315.492 204.747 315.492 206.273ZM328.477 207.25V212H327.148V200.578H330.281C331.682 200.578 332.716 200.846 333.383 201.383C334.055 201.919 334.391 202.727 334.391 203.805C334.391 205.315 333.625 206.336 332.094 206.867L335.195 212H333.625L330.859 207.25H328.477ZM328.477 206.109H330.297C331.234 206.109 331.922 205.924 332.359 205.555C332.797 205.18 333.016 204.62 333.016 203.875C333.016 203.12 332.792 202.576 332.344 202.242C331.901 201.909 331.188 201.742 330.203 201.742H328.477V206.109ZM346.156 206.18C346.156 208.065 345.643 209.508 344.617 210.508C343.596 211.503 342.125 212 340.203 212H337.039V200.578H340.539C342.315 200.578 343.695 201.07 344.68 202.055C345.664 203.039 346.156 204.414 346.156 206.18ZM344.75 206.227C344.75 204.737 344.375 203.615 343.625 202.859C342.88 202.104 341.771 201.727 340.297 201.727H338.367V210.852H339.984C341.568 210.852 342.758 210.464 343.555 209.688C344.352 208.906 344.75 207.753 344.75 206.227ZM355.891 212L354.469 208.367H349.891L348.484 212H347.141L351.656 200.531H352.773L357.266 212H355.891ZM354.055 207.172L352.727 203.633C352.555 203.185 352.378 202.635 352.195 201.984C352.081 202.484 351.917 203.034 351.703 203.633L350.359 207.172H354.055ZM358.836 200.578H362.062C363.578 200.578 364.674 200.805 365.352 201.258C366.029 201.711 366.367 202.427 366.367 203.406C366.367 204.083 366.177 204.643 365.797 205.086C365.422 205.523 364.872 205.807 364.148 205.938V206.016C365.883 206.312 366.75 207.224 366.75 208.75C366.75 209.771 366.404 210.568 365.711 211.141C365.023 211.714 364.06 212 362.82 212H358.836V200.578ZM360.164 205.469H362.352C363.289 205.469 363.964 205.323 364.375 205.031C364.786 204.734 364.992 204.237 364.992 203.539C364.992 202.898 364.763 202.438 364.305 202.156C363.846 201.87 363.117 201.727 362.117 201.727H360.164V205.469ZM360.164 206.594V210.867H362.547C363.469 210.867 364.161 210.69 364.625 210.336C365.094 209.977 365.328 209.417 365.328 208.656C365.328 207.948 365.089 207.427 364.609 207.094C364.135 206.76 363.411 206.594 362.438 206.594H360.164ZM369.211 212V200.578H370.539V210.797H375.578V212H369.211ZM383.891 212H377.523V200.578H383.891V201.758H378.852V205.438H383.586V206.609H378.852V210.812H383.891V212ZM424.039 212H422.711V201.758H419.094V200.578H427.656V201.758H424.039V212ZM430.711 207.25V212H429.383V200.578H432.516C433.917 200.578 434.951 200.846 435.617 201.383C436.289 201.919 436.625 202.727 436.625 203.805C436.625 205.315 435.859 206.336 434.328 206.867L437.43 212H435.859L433.094 207.25H430.711ZM430.711 206.109H432.531C433.469 206.109 434.156 205.924 434.594 205.555C435.031 205.18 435.25 204.62 435.25 203.875C435.25 203.12 435.026 202.576 434.578 202.242C434.135 201.909 433.422 201.742 432.438 201.742H430.711V206.109ZM446.453 212L445.031 208.367H440.453L439.047 212H437.703L442.219 200.531H443.336L447.828 212H446.453ZM444.617 207.172L443.289 203.633C443.117 203.185 442.94 202.635 442.758 201.984C442.643 202.484 442.479 203.034 442.266 203.633L440.922 207.172H444.617ZM458.32 212H456.805L450.562 202.414H450.5C450.583 203.539 450.625 204.57 450.625 205.508V212H449.398V200.578H450.898L457.125 210.125H457.188C457.177 209.984 457.154 209.534 457.117 208.773C457.081 208.008 457.068 207.461 457.078 207.133V200.578H458.32V212ZM467.906 208.961C467.906 209.966 467.542 210.75 466.812 211.312C466.083 211.875 465.094 212.156 463.844 212.156C462.49 212.156 461.448 211.982 460.719 211.633V210.352C461.188 210.549 461.698 210.706 462.25 210.82C462.802 210.935 463.349 210.992 463.891 210.992C464.776 210.992 465.443 210.826 465.891 210.492C466.339 210.154 466.562 209.685 466.562 209.086C466.562 208.69 466.482 208.367 466.32 208.117C466.164 207.862 465.898 207.628 465.523 207.414C465.154 207.201 464.589 206.958 463.828 206.688C462.766 206.307 462.005 205.857 461.547 205.336C461.094 204.815 460.867 204.135 460.867 203.297C460.867 202.417 461.198 201.716 461.859 201.195C462.521 200.674 463.396 200.414 464.484 200.414C465.62 200.414 466.664 200.622 467.617 201.039L467.203 202.195C466.26 201.799 465.344 201.602 464.453 201.602C463.75 201.602 463.201 201.753 462.805 202.055C462.409 202.357 462.211 202.776 462.211 203.312C462.211 203.708 462.284 204.034 462.43 204.289C462.576 204.539 462.82 204.771 463.164 204.984C463.513 205.193 464.044 205.424 464.758 205.68C465.956 206.107 466.779 206.565 467.227 207.055C467.68 207.544 467.906 208.18 467.906 208.961ZM477.484 203.906C477.484 205.062 477.089 205.953 476.297 206.578C475.51 207.198 474.383 207.508 472.914 207.508H471.57V212H470.242V200.578H473.203C476.057 200.578 477.484 201.688 477.484 203.906ZM471.57 206.367H472.766C473.943 206.367 474.794 206.177 475.32 205.797C475.846 205.417 476.109 204.807 476.109 203.969C476.109 203.214 475.862 202.651 475.367 202.281C474.872 201.911 474.102 201.727 473.055 201.727H471.57V206.367ZM487.062 212L485.641 208.367H481.062L479.656 212H478.312L482.828 200.531H483.945L488.438 212H487.062ZM485.227 207.172L483.898 203.633C483.727 203.185 483.549 202.635 483.367 201.984C483.253 202.484 483.089 203.034 482.875 203.633L481.531 207.172H485.227ZM491.336 207.25V212H490.008V200.578H493.141C494.542 200.578 495.576 200.846 496.242 201.383C496.914 201.919 497.25 202.727 497.25 203.805C497.25 205.315 496.484 206.336 494.953 206.867L498.055 212H496.484L493.719 207.25H491.336ZM491.336 206.109H493.156C494.094 206.109 494.781 205.924 495.219 205.555C495.656 205.18 495.875 204.62 495.875 203.875C495.875 203.12 495.651 202.576 495.203 202.242C494.76 201.909 494.047 201.742 493.062 201.742H491.336V206.109ZM506.266 212H499.898V200.578H506.266V201.758H501.227V205.438H505.961V206.609H501.227V210.812H506.266V212ZM517.727 212H516.211L509.969 202.414H509.906C509.99 203.539 510.031 204.57 510.031 205.508V212H508.805V200.578H510.305L516.531 210.125H516.594C516.583 209.984 516.56 209.534 516.523 208.773C516.487 208.008 516.474 207.461 516.484 207.133V200.578H517.727V212ZM524.383 212H523.055V201.758H519.438V200.578H528V201.758H524.383V212ZM565.148 212H563.82V200.578H570.188V201.758H565.148V205.938H569.883V207.117H565.148V212ZM579.266 212L577.844 208.367H573.266L571.859 212H570.516L575.031 200.531H576.148L580.641 212H579.266ZM577.43 207.172L576.102 203.633C575.93 203.185 575.753 202.635 575.57 201.984C575.456 202.484 575.292 203.034 575.078 203.633L573.734 207.172H577.43ZM582.211 212V200.578H583.539V212H582.211ZM588.008 207.25V212H586.68V200.578H589.812C591.214 200.578 592.247 200.846 592.914 201.383C593.586 201.919 593.922 202.727 593.922 203.805C593.922 205.315 593.156 206.336 591.625 206.867L594.727 212H593.156L590.391 207.25H588.008ZM588.008 206.109H589.828C590.766 206.109 591.453 205.924 591.891 205.555C592.328 205.18 592.547 204.62 592.547 203.875C592.547 203.12 592.323 202.576 591.875 202.242C591.432 201.909 590.719 201.742 589.734 201.742H588.008V206.109Z" fill="#B45FFF"/>
<path d="M269.93 205.82H273.148V206.898H269.93V210.227H268.844V206.898H265.641V205.82H268.844V202.477H269.93V205.82ZM402.43 205.82H405.648V206.898H402.43V210.227H401.344V206.898H398.141V205.82H401.344V202.477H402.43V205.82ZM545.727 205.82H548.945V206.898H545.727V210.227H544.641V206.898H541.438V205.82H544.641V202.477H545.727V205.82Z" fill="#6CC5FF"/>
<rect x="460" y="249" width="135" height="48" rx="3" fill="#B45FFF"/>
<path d="M485.891 279V267.578H487.219V277.797H492.258V279H485.891ZM497.625 279.156C496.359 279.156 495.359 278.771 494.625 278C493.896 277.229 493.531 276.159 493.531 274.789C493.531 273.409 493.87 272.312 494.547 271.5C495.229 270.688 496.143 270.281 497.289 270.281C498.362 270.281 499.211 270.635 499.836 271.344C500.461 272.047 500.773 272.977 500.773 274.133V274.953H494.875C494.901 275.958 495.154 276.721 495.633 277.242C496.117 277.763 496.797 278.023 497.672 278.023C498.594 278.023 499.505 277.831 500.406 277.445V278.602C499.948 278.799 499.513 278.94 499.102 279.023C498.695 279.112 498.203 279.156 497.625 279.156ZM497.273 271.367C496.586 271.367 496.036 271.591 495.625 272.039C495.219 272.487 494.979 273.107 494.906 273.898H499.383C499.383 273.081 499.201 272.456 498.836 272.023C498.471 271.586 497.951 271.367 497.273 271.367ZM508.258 279L508 277.781H507.938C507.51 278.318 507.083 278.682 506.656 278.875C506.234 279.062 505.706 279.156 505.07 279.156C504.221 279.156 503.555 278.938 503.07 278.5C502.591 278.062 502.352 277.44 502.352 276.633C502.352 274.904 503.734 273.997 506.5 273.914L507.953 273.867V273.336C507.953 272.664 507.807 272.169 507.516 271.852C507.229 271.529 506.768 271.367 506.133 271.367C505.419 271.367 504.612 271.586 503.711 272.023L503.312 271.031C503.734 270.802 504.195 270.622 504.695 270.492C505.201 270.362 505.706 270.297 506.211 270.297C507.232 270.297 507.987 270.523 508.477 270.977C508.971 271.43 509.219 272.156 509.219 273.156V279H508.258ZM505.328 278.086C506.135 278.086 506.768 277.865 507.227 277.422C507.69 276.979 507.922 276.359 507.922 275.562V274.789L506.625 274.844C505.594 274.88 504.849 275.042 504.391 275.328C503.938 275.609 503.711 276.049 503.711 276.648C503.711 277.117 503.852 277.474 504.133 277.719C504.419 277.964 504.818 278.086 505.328 278.086ZM515.805 270.281C516.185 270.281 516.526 270.312 516.828 270.375L516.648 271.578C516.294 271.5 515.982 271.461 515.711 271.461C515.018 271.461 514.424 271.742 513.93 272.305C513.44 272.867 513.195 273.568 513.195 274.406V279H511.898V270.438H512.969L513.117 272.023H513.18C513.497 271.466 513.88 271.036 514.328 270.734C514.776 270.432 515.268 270.281 515.805 270.281ZM524.289 279V273.461C524.289 272.763 524.13 272.242 523.812 271.898C523.495 271.555 522.997 271.383 522.32 271.383C521.424 271.383 520.768 271.625 520.352 272.109C519.935 272.594 519.727 273.393 519.727 274.508V279H518.43V270.438H519.484L519.695 271.609H519.758C520.023 271.188 520.396 270.862 520.875 270.633C521.354 270.398 521.888 270.281 522.477 270.281C523.508 270.281 524.284 270.531 524.805 271.031C525.326 271.526 525.586 272.32 525.586 273.414V279H524.289ZM537.664 279L533.789 268.875H533.727C533.799 269.677 533.836 270.63 533.836 271.734V279H532.609V267.578H534.609L538.227 277H538.289L541.938 267.578H543.922V279H542.594V271.641C542.594 270.797 542.63 269.88 542.703 268.891H542.641L538.734 279H537.664ZM554.258 274.711C554.258 276.107 553.906 277.198 553.203 277.984C552.5 278.766 551.529 279.156 550.289 279.156C549.523 279.156 548.844 278.977 548.25 278.617C547.656 278.258 547.198 277.742 546.875 277.07C546.552 276.398 546.391 275.612 546.391 274.711C546.391 273.315 546.74 272.229 547.438 271.453C548.135 270.672 549.104 270.281 550.344 270.281C551.542 270.281 552.492 270.68 553.195 271.477C553.904 272.273 554.258 273.352 554.258 274.711ZM547.734 274.711C547.734 275.805 547.953 276.638 548.391 277.211C548.828 277.784 549.471 278.07 550.32 278.07C551.169 278.07 551.812 277.786 552.25 277.219C552.693 276.646 552.914 275.81 552.914 274.711C552.914 273.622 552.693 272.797 552.25 272.234C551.812 271.667 551.164 271.383 550.305 271.383C549.456 271.383 548.815 271.661 548.383 272.219C547.951 272.776 547.734 273.607 547.734 274.711ZM560.445 270.281C560.826 270.281 561.167 270.312 561.469 270.375L561.289 271.578C560.935 271.5 560.622 271.461 560.352 271.461C559.659 271.461 559.065 271.742 558.57 272.305C558.081 272.867 557.836 273.568 557.836 274.406V279H556.539V270.438H557.609L557.758 272.023H557.82C558.138 271.466 558.521 271.036 558.969 270.734C559.417 270.432 559.909 270.281 560.445 270.281ZM566.688 279.156C565.422 279.156 564.422 278.771 563.688 278C562.958 277.229 562.594 276.159 562.594 274.789C562.594 273.409 562.932 272.312 563.609 271.5C564.292 270.688 565.206 270.281 566.352 270.281C567.424 270.281 568.273 270.635 568.898 271.344C569.523 272.047 569.836 272.977 569.836 274.133V274.953H563.938C563.964 275.958 564.216 276.721 564.695 277.242C565.18 277.763 565.859 278.023 566.734 278.023C567.656 278.023 568.568 277.831 569.469 277.445V278.602C569.01 278.799 568.576 278.94 568.164 279.023C567.758 279.112 567.266 279.156 566.688 279.156ZM566.336 271.367C565.648 271.367 565.099 271.591 564.688 272.039C564.281 272.487 564.042 273.107 563.969 273.898H568.445C568.445 273.081 568.263 272.456 567.898 272.023C567.534 271.586 567.013 271.367 566.336 271.367Z" fill="#1B003F"/>
<rect x="460" y="249" width="135" height="48" rx="3" stroke="#220050"/>
</svg>
