<svg width="25" height="18" viewBox="0 0 25 18" fill="none" xmlns="http://www.w3.org/2000/svg">
<path d="M20.9019 1.51678C20.8952 1.50408 20.8841 1.49414 20.8707 1.48872C19.3146 0.78753 17.6725 0.287529 15.9855 0.00122643C15.9702 -0.00157213 15.9544 0.000446784 15.9403 0.00699602C15.9262 0.0135453 15.9145 0.0242914 15.907 0.0377061C15.6834 0.436293 15.4804 0.845707 15.2989 1.26439C13.4803 0.993267 11.6306 0.993267 9.81207 1.26439C9.62928 0.844644 9.42305 0.435128 9.19431 0.0377061C9.18646 0.0245829 9.17478 0.0140843 9.16077 0.00757759C9.14676 0.00107089 9.13108 -0.00114228 9.11578 0.00122643C7.42858 0.286928 5.78639 0.786967 4.23054 1.48876C4.21722 1.4943 4.20598 1.50377 4.19837 1.51586C1.08697 6.07935 0.234643 10.5306 0.652767 14.9268C0.653943 14.9376 0.657314 14.948 0.662678 14.9575C0.668042 14.9669 0.67529 14.9753 0.683992 14.9819C2.49573 16.2994 4.52218 17.3051 6.67687 17.956C6.69204 17.9605 6.70825 17.9603 6.7233 17.9554C6.73836 17.9506 6.75154 17.9413 6.76107 17.9289C7.22385 17.3104 7.63391 16.6556 7.98708 15.9709C7.99193 15.9615 7.9947 15.9512 7.99521 15.9407C7.99571 15.9302 7.99394 15.9197 7.99001 15.9099C7.98608 15.9001 7.98008 15.8912 7.97241 15.8838C7.96473 15.8765 7.95556 15.8708 7.94549 15.8672C7.29886 15.6242 6.67284 15.3313 6.07332 14.9911C6.06243 14.9849 6.05328 14.976 6.04669 14.9654C6.04009 14.9549 6.03625 14.9429 6.0355 14.9305C6.03476 14.9181 6.03713 14.9057 6.04241 14.8944C6.04768 14.8832 6.05571 14.8733 6.06577 14.8658C6.19156 14.7733 6.31744 14.677 6.43756 14.5797C6.44824 14.5711 6.46115 14.5656 6.47485 14.5637C6.48855 14.5619 6.5025 14.5639 6.51511 14.5695C10.4428 16.33 14.6951 16.33 18.5764 14.5695C18.589 14.5636 18.6031 14.5613 18.617 14.563C18.6309 14.5646 18.6441 14.5701 18.6549 14.5788C18.7751 14.6761 18.9009 14.7733 19.0276 14.8658C19.0378 14.8733 19.0459 14.883 19.0512 14.8942C19.0566 14.9055 19.059 14.9178 19.0584 14.9302C19.0577 14.9426 19.054 14.9546 19.0475 14.9653C19.041 14.9759 19.0319 14.9848 19.021 14.9911C18.4229 15.3341 17.7963 15.6269 17.148 15.8663C17.1379 15.87 17.1288 15.8758 17.1211 15.8833C17.1135 15.8908 17.1076 15.8997 17.1037 15.9096C17.0999 15.9195 17.0982 15.9301 17.0988 15.9406C17.0994 15.9512 17.1022 15.9615 17.1072 15.9709C17.4662 16.6518 17.8757 17.3058 18.3322 17.9278C18.3415 17.9406 18.3546 17.9501 18.3697 17.9552C18.3848 17.9602 18.4012 17.9604 18.4164 17.9559C20.575 17.3072 22.605 16.3014 24.419 14.9819C24.4278 14.9756 24.4352 14.9675 24.4405 14.9581C24.4459 14.9488 24.4492 14.9384 24.4502 14.9277C24.9508 9.8453 23.6122 5.43049 20.9019 1.51678ZM8.57365 12.25C7.39112 12.25 6.41675 11.1842 6.41675 9.87524C6.41675 8.5663 7.37222 7.50041 8.57365 7.50041C9.78447 7.50041 10.7494 8.57556 10.7305 9.87516C10.7305 11.1842 9.775 12.25 8.57365 12.25ZM16.5484 12.25C15.3659 12.25 14.3915 11.1842 14.3915 9.87524C14.3915 8.5663 15.347 7.50041 16.5484 7.50041C17.7593 7.50041 18.7242 8.57556 18.7053 9.87516C18.7053 11.1842 17.7593 12.25 16.5484 12.25Z" />
</svg>
