<svg width="960" height="243" viewBox="0 0 960 243" fill="none" xmlns="http://www.w3.org/2000/svg">
<mask id="mask0_170_649" style="mask-type:alpha" maskUnits="userSpaceOnUse" x="0" y="0" width="960" height="243">
<rect width="960" height="243" fill="#D9D9D9"/>
</mask>
<g mask="url(#mask0_170_649)">
<path fill-rule="evenodd" clip-rule="evenodd" d="M284.47 -258L759.627 -236.719L952 191.571L680.598 583L202.858 552.344L7 88.2947L284.47 -258ZM632.824 -11.1232L288.46 139.635L582.87 367.723L632.824 -11.1232ZM592.955 -86.6666L317.752 -205.4L259.942 44.2421L592.955 -86.6666ZM523.2 425.113L224.108 211.112L231.343 501.095L523.2 425.113ZM904.227 190.627L700.411 -16.6087L646.616 381.896L904.227 190.627ZM593.325 471.725L341.08 537.786L637.719 556.819L593.325 471.725ZM864.397 284.65L643.592 449.467L687.467 535.383L864.397 284.65ZM759.955 -176.879L717.069 -88.6605L876.7 73.9321L759.955 -176.879ZM706.521 -219.094L426.205 -230.495L657.432 -129.154L706.521 -219.094ZM243.535 -178.299L47.1929 70.1267L178.464 97.9873L243.535 -178.299ZM170.549 146.719L38.6449 118.736L176.276 443.628L170.549 146.719Z" fill="white" fill-opacity="0.06"/>
</g>
</svg>
