<svg width="25" height="24" viewBox="0 0 25 24" fill="none" xmlns="http://www.w3.org/2000/svg">
<path d="M8.54468 19.3248C8.54468 19.424 8.43366 19.5034 8.29369 19.5034C8.13441 19.5183 8.02339 19.4389 8.02339 19.3248C8.02339 19.2255 8.13441 19.1461 8.27438 19.1461C8.41918 19.1312 8.54468 19.2106 8.54468 19.3248ZM7.04357 19.1014C7.00979 19.2007 7.10632 19.3148 7.25112 19.3446C7.37662 19.3942 7.52142 19.3446 7.55038 19.2454C7.57934 19.1461 7.48763 19.032 7.34283 18.9873C7.21733 18.9526 7.07736 19.0022 7.04357 19.1014ZM9.17698 19.0171C9.037 19.0518 8.94047 19.1461 8.95495 19.2603C8.96943 19.3595 9.09492 19.424 9.23973 19.3893C9.3797 19.3545 9.47623 19.2603 9.46175 19.161C9.44727 19.0667 9.31695 19.0022 9.17698 19.0171ZM12.353 0C5.65831 0 0.53717 5.22573 0.53717 12.109C0.53717 17.6126 3.90621 22.3222 8.71844 23.9798C9.33626 24.0939 9.55346 23.7019 9.55346 23.3793C9.55346 23.0716 9.53898 21.3744 9.53898 20.3322C9.53898 20.3322 6.16028 21.0766 5.45076 18.8533C5.45076 18.8533 4.90051 17.4092 4.10893 17.037C4.10893 17.037 3.00362 16.2578 4.18616 16.2727C4.18616 16.2727 5.38801 16.372 6.04927 17.5531C7.10632 19.4687 8.87772 18.9178 9.56794 18.5903C9.67896 17.7963 9.99269 17.2454 10.3402 16.9179C7.64208 16.6102 4.91982 16.2082 4.91982 11.4341C4.91982 10.0693 5.28665 9.38447 6.05892 8.51103C5.93343 8.18846 5.52316 6.85846 6.18442 5.14136C7.1932 4.81878 9.51485 6.48129 9.51485 6.48129C10.4802 6.20338 11.5179 6.05946 12.546 6.05946C13.5741 6.05946 14.6119 6.20338 15.5772 6.48129C15.5772 6.48129 17.8988 4.81382 18.9076 5.14136C19.5689 6.86342 19.1586 8.18846 19.0331 8.51103C19.8054 9.38943 20.2784 10.0743 20.2784 11.4341C20.2784 16.2231 17.4355 16.6052 14.7373 16.9179C15.1814 17.3099 15.5579 18.0543 15.5579 19.2205C15.5579 20.893 15.5434 22.9624 15.5434 23.3694C15.5434 23.6919 15.7654 24.084 16.3784 23.9699C21.2051 22.3222 24.4776 17.6126 24.4776 12.109C24.4776 5.22573 19.0476 0 12.353 0ZM5.22873 17.1164C5.16598 17.166 5.18046 17.2801 5.26252 17.3744C5.33974 17.4538 5.45076 17.4886 5.51351 17.424C5.57625 17.3744 5.56177 17.2603 5.47972 17.166C5.40249 17.0866 5.29148 17.0518 5.22873 17.1164ZM4.70745 16.7144C4.67366 16.7789 4.72193 16.8583 4.81846 16.9079C4.89569 16.9576 4.99222 16.9427 5.02601 16.8732C5.0598 16.8087 5.01153 16.7293 4.91499 16.6796C4.81846 16.6499 4.74123 16.6648 4.70745 16.7144ZM6.2713 18.4811C6.19407 18.5456 6.22303 18.6945 6.33405 18.7888C6.44506 18.9029 6.58504 18.9178 6.64778 18.8384C6.71053 18.7739 6.68157 18.625 6.58504 18.5307C6.47885 18.4166 6.33405 18.4017 6.2713 18.4811ZM5.72105 17.7516C5.64383 17.8012 5.64383 17.9302 5.72105 18.0444C5.79828 18.1585 5.9286 18.2082 5.99135 18.1585C6.06858 18.094 6.06858 17.965 5.99135 17.8508C5.92378 17.7367 5.79828 17.6871 5.72105 17.7516Z" />
</svg>
