<svg width="1341" height="615" viewBox="0 0 1341 615" fill="none" xmlns="http://www.w3.org/2000/svg">
<mask id="mask0_51_849" style="mask-type:alpha" maskUnits="userSpaceOnUse" x="0" y="0" width="1341" height="615">
<rect width="1341" height="615" fill="#D9D9D9"/>
</mask>
<g mask="url(#mask0_51_849)">
<path fill-rule="evenodd" clip-rule="evenodd" d="M393.743 0L1068.01 30.2135L1341 638.273L955.868 1194L277.931 1150.48L0 491.648L393.743 0ZM888.074 350.5L399.406 564.537L817.186 888.364L888.074 350.5ZM831.498 243.249L440.972 74.6786L358.937 429.105L831.498 243.249ZM732.513 969.841L308.087 666.017L318.353 1077.72L732.513 969.841ZM1273.21 636.932L983.983 342.713L907.645 908.485L1273.21 636.932ZM832.023 1036.02L474.075 1129.81L895.02 1156.83L832.023 1036.02ZM1216.69 770.421L903.355 1004.42L965.615 1126.4L1216.69 770.421ZM1068.48 115.171L1007.62 240.418L1234.15 471.257L1068.48 115.171ZM992.653 55.2365L594.872 39.0496L922.994 182.928L992.653 55.2365ZM335.655 113.155L57.0357 465.854L243.316 505.409L335.655 113.155ZM232.083 574.596L44.9056 534.867L240.211 996.129L232.083 574.596Z" fill="white" fill-opacity="0.06"/>
</g>
</svg>
