<svg width="455" height="74" viewBox="0 0 455 74" fill="none" xmlns="http://www.w3.org/2000/svg">
<path d="M52.3594 73H39.375L17.8594 41.9688L11.25 47.3594V73H0.046875V4.46875H11.25V37.1875C14.3125 33.4375 17.3594 29.8281 20.3906 26.3594L38.9062 4.46875H51.6562C39.6875 18.5312 31.1094 28.5469 25.9219 34.5156L52.3594 73ZM71.2969 73H60.2812V0.0625H71.2969V73ZM109.734 73.9375C101.672 73.9375 95.3594 71.5938 90.7969 66.9062C86.2656 62.1875 84 55.7031 84 47.4531C84 38.9844 86.1094 32.3281 90.3281 27.4844C94.5469 22.6406 100.344 20.2188 107.719 20.2188C114.562 20.2188 119.969 22.2969 123.938 26.4531C127.906 30.6094 129.891 36.3281 129.891 43.6094V49.5625H95.3438C95.5 54.5938 96.8594 58.4688 99.4219 61.1875C101.984 63.875 105.594 65.2188 110.25 65.2188C113.312 65.2188 116.156 64.9375 118.781 64.375C121.438 63.7812 124.281 62.8125 127.312 61.4688V70.4219C124.625 71.7031 121.906 72.6094 119.156 73.1406C116.406 73.6719 113.266 73.9375 109.734 73.9375ZM107.719 28.5625C104.219 28.5625 101.406 29.6719 99.2812 31.8906C97.1875 34.1094 95.9375 37.3438 95.5312 41.5938H119.062C119 37.3125 117.969 34.0781 115.969 31.8906C113.969 29.6719 111.219 28.5625 107.719 28.5625ZM168.703 20.2188C170.922 20.2188 172.75 20.375 174.188 20.6875L173.109 30.9531C171.547 30.5781 169.922 30.3906 168.234 30.3906C163.828 30.3906 160.25 31.8281 157.5 34.7031C154.781 37.5781 153.422 41.3125 153.422 45.9062V73H142.406V21.1562H151.031L152.484 30.2969H153.047C154.766 27.2031 157 24.75 159.75 22.9375C162.531 21.125 165.516 20.2188 168.703 20.2188ZM229.828 46.9844C229.828 55.4531 227.656 62.0625 223.312 66.8125C218.969 71.5625 212.922 73.9375 205.172 73.9375C200.328 73.9375 196.047 72.8438 192.328 70.6562C188.609 68.4688 185.75 65.3281 183.75 61.2344C181.75 57.1406 180.75 52.3906 180.75 46.9844C180.75 38.5781 182.906 32.0156 187.219 27.2969C191.531 22.5781 197.609 20.2188 205.453 20.2188C212.953 20.2188 218.891 22.6406 223.266 27.4844C227.641 32.2969 229.828 38.7969 229.828 46.9844ZM192.094 46.9844C192.094 58.9531 196.516 64.9375 205.359 64.9375C214.109 64.9375 218.484 58.9531 218.484 46.9844C218.484 35.1406 214.078 29.2188 205.266 29.2188C200.641 29.2188 197.281 30.75 195.188 33.8125C193.125 36.875 192.094 41.2656 192.094 46.9844ZM277.359 58.2344C277.359 63.2969 275.516 67.1875 271.828 69.9062C268.141 72.5938 262.859 73.9375 255.984 73.9375C249.078 73.9375 243.531 72.8906 239.344 70.7969V61.2812C245.438 64.0938 251.109 65.5 256.359 65.5C263.141 65.5 266.531 63.4531 266.531 59.3594C266.531 58.0469 266.156 56.9531 265.406 56.0781C264.656 55.2031 263.422 54.2969 261.703 53.3594C259.984 52.4219 257.594 51.3594 254.531 50.1719C248.562 47.8594 244.516 45.5469 242.391 43.2344C240.297 40.9219 239.25 37.9219 239.25 34.2344C239.25 29.7969 241.031 26.3594 244.594 23.9219C248.188 21.4531 253.062 20.2188 259.219 20.2188C265.312 20.2188 271.078 21.4531 276.516 23.9219L272.953 32.2188C267.359 29.9062 262.656 28.75 258.844 28.75C253.031 28.75 250.125 30.4062 250.125 33.7188C250.125 35.3438 250.875 36.7188 252.375 37.8438C253.906 38.9688 257.219 40.5156 262.312 42.4844C266.594 44.1406 269.703 45.6562 271.641 47.0312C273.578 48.4062 275.016 50 275.953 51.8125C276.891 53.5938 277.359 55.7344 277.359 58.2344ZM319.641 13.0938C313.203 13.0938 308.141 15.375 304.453 19.9375C300.766 24.5 298.922 30.7969 298.922 38.8281C298.922 47.2344 300.688 53.5938 304.219 57.9062C307.781 62.2188 312.922 64.375 319.641 64.375C322.547 64.375 325.359 64.0938 328.078 63.5312C330.797 62.9375 333.625 62.1875 336.562 61.2812V70.8906C331.188 72.9219 325.094 73.9375 318.281 73.9375C308.25 73.9375 300.547 70.9062 295.172 64.8438C289.797 58.75 287.109 50.0469 287.109 38.7344C287.109 31.6094 288.406 25.375 291 20.0312C293.625 14.6875 297.406 10.5938 302.344 7.75C307.281 4.90625 313.078 3.48438 319.734 3.48438C326.734 3.48438 333.203 4.95312 339.141 7.89062L335.109 17.2188C332.797 16.125 330.344 15.1719 327.75 14.3594C325.188 13.5156 322.484 13.0938 319.641 13.0938ZM396.141 46.9844C396.141 55.4531 393.969 62.0625 389.625 66.8125C385.281 71.5625 379.234 73.9375 371.484 73.9375C366.641 73.9375 362.359 72.8438 358.641 70.6562C354.922 68.4688 352.062 65.3281 350.062 61.2344C348.062 57.1406 347.062 52.3906 347.062 46.9844C347.062 38.5781 349.219 32.0156 353.531 27.2969C357.844 22.5781 363.922 20.2188 371.766 20.2188C379.266 20.2188 385.203 22.6406 389.578 27.4844C393.953 32.2969 396.141 38.7969 396.141 46.9844ZM358.406 46.9844C358.406 58.9531 362.828 64.9375 371.672 64.9375C380.422 64.9375 384.797 58.9531 384.797 46.9844C384.797 35.1406 380.391 29.2188 371.578 29.2188C366.953 29.2188 363.594 30.75 361.5 33.8125C359.438 36.875 358.406 41.2656 358.406 46.9844ZM454.453 73H443.391V41.125C443.391 37.125 442.578 34.1406 440.953 32.1719C439.359 30.2031 436.812 29.2188 433.312 29.2188C428.656 29.2188 425.25 30.5938 423.094 33.3438C420.938 36.0938 419.859 40.7031 419.859 47.1719V73H408.844V21.1562H417.469L419.016 27.9531H419.578C421.141 25.4844 423.359 23.5781 426.234 22.2344C429.109 20.8906 432.297 20.2188 435.797 20.2188C448.234 20.2188 454.453 26.5469 454.453 39.2031V73Z" fill="url(#paint0_linear_72_676)"/>
<defs>
<linearGradient id="paint0_linear_72_676" x1="-9" y1="38.7634" x2="462" y2="38.7634" gradientUnits="userSpaceOnUse">
<stop stop-color="#1B003F"/>
<stop offset="1" stop-color="#7E1BD4"/>
</linearGradient>
</defs>
</svg>
