<svg width="148" height="40" viewBox="0 0 148 48" fill="none" xmlns="http://www.w3.org/2000/svg">
<g clip-path="url(#clip0_21_2363)">
<path fill-rule="evenodd" clip-rule="evenodd" d="M66.8129 24.4091H66.1852V18.814H64.5028V31.9439H66.1852V25.7947H66.7629L72.0606 32.2717L73.3412 31.188L68.244 25.0138L72.588 19.4948L71.3073 18.4869L66.8129 24.4091ZM81.452 18.8138H79.7697V31.9437H88.3069V30.4316H81.452V18.8138ZM94.5095 18.8138H102.67V20.326H96.1916V24.2572H101.54V25.7691H96.1916V30.4314H102.67V31.9435H94.5095V18.8138ZM113.819 18.8138H109.375V31.9437H111.057V26.3237H113.493L116.832 32.2714L118.288 31.3894L115.074 26.0717C116.656 25.593 117.736 24.0052 117.736 22.3925C117.736 19.847 116.004 18.8138 113.819 18.8138ZM115.978 22.3923C115.978 23.8792 114.899 24.8116 113.266 24.8116H111.057V20.326H113.769C115.275 20.326 115.978 21.208 115.978 22.3923ZM132.878 25.3917C132.878 26.45 132.802 32.1707 128.232 32.1707C126.123 32.1707 123.587 30.6586 123.587 25.3917C123.587 20.1496 126.073 18.5872 128.232 18.5872C130.316 18.5872 132.878 20.0993 132.878 25.3917ZM125.345 25.3917C125.345 27.3069 125.696 30.5829 128.232 30.5829C130.768 30.5829 131.12 27.3069 131.12 25.3917C131.12 23.4509 130.768 20.175 128.232 20.175C125.696 20.1748 125.345 23.4509 125.345 25.3917ZM143.424 30.5829C141.666 30.5829 140.888 29.3984 140.562 27.7857L139.055 28.2644C139.457 30.6081 140.988 32.1707 143.424 32.1707C145.835 32.1707 147.567 30.7594 147.567 28.2644C147.567 26.9036 146.939 25.8451 145.759 25.1899L142.972 23.9551C141.968 23.5015 141.215 23.1487 141.215 21.9139C141.215 20.7292 142.269 20.175 143.349 20.175C144.78 20.175 145.458 21.082 145.759 22.3673L147.366 21.8886C146.839 19.8472 145.558 18.5872 143.374 18.5872C141.315 18.5872 139.532 19.822 139.532 22.0397C139.532 24.2924 141.036 24.9098 142.749 25.6128C142.914 25.6805 143.081 25.749 143.248 25.8199C143.353 25.8632 143.458 25.9056 143.563 25.948C144.742 26.4232 145.885 26.8843 145.885 28.3653C145.885 29.827 144.805 30.5829 143.424 30.5829Z" fill="white"/>
<path fill-rule="evenodd" clip-rule="evenodd" d="M15.6356 1L42.4109 2.19704L53.2512 26.288L37.9576 48.3055L11.0367 46.5812L0 20.4788L15.6356 1ZM35.2655 14.8866L15.8604 23.3666L32.4506 36.1964L35.2655 14.8866ZM33.0188 10.6374L17.511 3.95872L14.2534 18.0009L33.0188 10.6374ZM29.0882 39.4245L12.2342 27.3872L12.6418 43.6985L29.0882 39.4245ZM50.5592 26.2349L39.0741 14.5781L36.0427 36.9936L50.5592 26.2349ZM33.0397 42.0464L18.8256 45.7623L35.5413 46.8329L33.0397 42.0464ZM48.3148 31.5236L35.8723 40.7944L38.3447 45.6271L48.3148 31.5236ZM42.4294 5.56301L40.0127 10.5252L49.008 19.6709L42.4294 5.56301ZM39.4184 3.18844L23.6224 2.54712L36.6522 8.24748L39.4184 3.18844ZM13.3289 5.48314L2.26489 19.4568L9.66208 21.024L13.3289 5.48314ZM9.21605 23.7651L1.78321 22.1911L9.5388 40.466L9.21605 23.7651Z" fill="white"/>
</g>
<defs>
<clipPath id="clip0_21_2363">
<rect width="148" height="48" fill="white"/>
</clipPath>
</defs>
</svg>