<svg width="24" height="25" viewBox="0 0 24 25" fill="none" xmlns="http://www.w3.org/2000/svg">
<g clip-path="url(#clip0_21_2431)">
<path d="M10.8891 23.9C8.44219 20.8906 3 13.5969 3 9.5C3 4.52938 7.02938 0.5 12 0.5C16.9688 0.5 21 4.52938 21 9.5C21 13.5969 15.5156 20.8906 13.1109 23.9C12.5344 24.6172 11.4656 24.6172 10.8891 23.9ZM12 12.5C13.6547 12.5 15 11.1547 15 9.5C15 7.84531 13.6547 6.5 12 6.5C10.3453 6.5 9 7.84531 9 9.5C9 11.1547 10.3453 12.5 12 12.5Z" fill="#B45FFF"/>
</g>
<defs>
<clipPath id="clip0_21_2431">
<rect width="24" height="24" fill="white" transform="translate(0 0.5)"/>
</clipPath>
</defs>
</svg>
