<svg width="1104" height="116" viewBox="0 0 1104 116" fill="none" xmlns="http://www.w3.org/2000/svg">
<rect x="13" y="9" width="1078" height="98" fill="#220050"/>
<path d="M88.5312 60.3477C88.5312 61.8711 87.9805 63.0664 86.8789 63.9336C85.7773 64.8008 84.2578 65.2344 82.3203 65.2344C80.3828 65.2344 78.7969 64.9336 77.5625 64.332V61.6836C78.3438 62.0508 79.1719 62.3398 80.0469 62.5508C80.9297 62.7617 81.75 62.8672 82.5078 62.8672C83.6172 62.8672 84.4336 62.6562 84.957 62.2344C85.4883 61.8125 85.7539 61.2461 85.7539 60.5352C85.7539 59.8945 85.5117 59.3516 85.0273 58.9062C84.543 58.4609 83.543 57.9336 82.0273 57.3242C80.4648 56.6914 79.3633 55.9688 78.7227 55.1562C78.082 54.3438 77.7617 53.3672 77.7617 52.2266C77.7617 50.7969 78.2695 49.6719 79.2852 48.8516C80.3008 48.0312 81.6641 47.6211 83.375 47.6211C85.0156 47.6211 86.6484 47.9805 88.2734 48.6992L87.3828 50.9844C85.8594 50.3438 84.5 50.0234 83.3047 50.0234C82.3984 50.0234 81.7109 50.2227 81.2422 50.6211C80.7734 51.0117 80.5391 51.5312 80.5391 52.1797C80.5391 52.625 80.6328 53.0078 80.8203 53.3281C81.0078 53.6406 81.3164 53.9375 81.7461 54.2188C82.1758 54.5 82.9492 54.8711 84.0664 55.332C85.3242 55.8555 86.2461 56.3438 86.832 56.7969C87.418 57.25 87.8477 57.7617 88.1211 58.332C88.3945 58.9023 88.5312 59.5742 88.5312 60.3477ZM96.3828 63.0078C97.0547 63.0078 97.7266 62.9023 98.3984 62.6914V64.7656C98.0938 64.8984 97.6992 65.0078 97.2148 65.0938C96.7383 65.1875 96.2422 65.2344 95.7266 65.2344C93.1172 65.2344 91.8125 63.8594 91.8125 61.1094V54.125H90.043V52.9062L91.9414 51.8984L92.8789 49.1562H94.5781V52.0391H98.2695V54.125H94.5781V61.0625C94.5781 61.7266 94.7422 62.2188 95.0703 62.5391C95.4062 62.8516 95.8438 63.0078 96.3828 63.0078ZM109.109 65L108.559 63.1953H108.465C107.84 63.9844 107.211 64.5234 106.578 64.8125C105.945 65.0938 105.133 65.2344 104.141 65.2344C102.867 65.2344 101.871 64.8906 101.152 64.2031C100.441 63.5156 100.086 62.543 100.086 61.2852C100.086 59.9492 100.582 58.9414 101.574 58.2617C102.566 57.582 104.078 57.2109 106.109 57.1484L108.348 57.0781V56.3867C108.348 55.5586 108.152 54.9414 107.762 54.5352C107.379 54.1211 106.781 53.9141 105.969 53.9141C105.305 53.9141 104.668 54.0117 104.059 54.207C103.449 54.4023 102.863 54.6328 102.301 54.8984L101.41 52.9297C102.113 52.5625 102.883 52.2852 103.719 52.0977C104.555 51.9023 105.344 51.8047 106.086 51.8047C107.734 51.8047 108.977 52.1641 109.812 52.8828C110.656 53.6016 111.078 54.7305 111.078 56.2695V65H109.109ZM105.008 63.125C106.008 63.125 106.809 62.8477 107.41 62.293C108.02 61.7305 108.324 60.9453 108.324 59.9375V58.8125L106.66 58.8828C105.363 58.9297 104.418 59.1484 103.824 59.5391C103.238 59.9219 102.945 60.5117 102.945 61.3086C102.945 61.8867 103.117 62.3359 103.461 62.6562C103.805 62.9688 104.32 63.125 105.008 63.125ZM112.953 52.0391H115.953L118.59 59.3867C118.988 60.4336 119.254 61.418 119.387 62.3398H119.48C119.551 61.9102 119.68 61.3906 119.867 60.7812C120.055 60.1641 121.047 57.25 122.844 52.0391H125.82L120.277 66.7227C119.27 69.418 117.59 70.7656 115.238 70.7656C114.629 70.7656 114.035 70.6992 113.457 70.5664V68.3867C113.871 68.4805 114.344 68.5273 114.875 68.5273C116.203 68.5273 117.137 67.7578 117.676 66.2188L118.156 65L112.953 52.0391ZM143.164 65L142.777 63.3008H142.637C142.254 63.9023 141.707 64.375 140.996 64.7188C140.293 65.0625 139.488 65.2344 138.582 65.2344C137.012 65.2344 135.84 64.8438 135.066 64.0625C134.293 63.2812 133.906 62.0977 133.906 60.5117V52.0391H136.684V60.0312C136.684 61.0234 136.887 61.7695 137.293 62.2695C137.699 62.7617 138.336 63.0078 139.203 63.0078C140.359 63.0078 141.207 62.6641 141.746 61.9766C142.293 61.2812 142.566 60.1211 142.566 58.4961V52.0391H145.332V65H143.164ZM155.832 65.2344C154.191 65.2344 152.918 64.6445 152.012 63.4648H151.848C151.957 64.5586 152.012 65.2227 152.012 65.457V70.7656H149.258V52.0391H151.484C151.547 52.2812 151.676 52.8594 151.871 53.7734H152.012C152.871 52.4609 154.16 51.8047 155.879 51.8047C157.496 51.8047 158.754 52.3906 159.652 53.5625C160.559 54.7344 161.012 56.3789 161.012 58.4961C161.012 60.6133 160.551 62.2656 159.629 63.4531C158.715 64.6406 157.449 65.2344 155.832 65.2344ZM155.164 54.0547C154.07 54.0547 153.27 54.375 152.762 55.0156C152.262 55.6562 152.012 56.6797 152.012 58.0859V58.4961C152.012 60.0742 152.262 61.2188 152.762 61.9297C153.262 62.6328 154.078 62.9844 155.211 62.9844C156.164 62.9844 156.898 62.5938 157.414 61.8125C157.93 61.0312 158.188 59.918 158.188 58.4727C158.188 57.0195 157.93 55.9219 157.414 55.1797C156.906 54.4297 156.156 54.0547 155.164 54.0547ZM175.273 63.0078C175.945 63.0078 176.617 62.9023 177.289 62.6914V64.7656C176.984 64.8984 176.59 65.0078 176.105 65.0938C175.629 65.1875 175.133 65.2344 174.617 65.2344C172.008 65.2344 170.703 63.8594 170.703 61.1094V54.125H168.934V52.9062L170.832 51.8984L171.77 49.1562H173.469V52.0391H177.16V54.125H173.469V61.0625C173.469 61.7266 173.633 62.2188 173.961 62.5391C174.297 62.8516 174.734 63.0078 175.273 63.0078ZM191.387 58.4961C191.387 60.6133 190.844 62.2656 189.758 63.4531C188.672 64.6406 187.16 65.2344 185.223 65.2344C184.012 65.2344 182.941 64.9609 182.012 64.4141C181.082 63.8672 180.367 63.082 179.867 62.0586C179.367 61.0352 179.117 59.8477 179.117 58.4961C179.117 56.3945 179.656 54.7539 180.734 53.5742C181.812 52.3945 183.332 51.8047 185.293 51.8047C187.168 51.8047 188.652 52.4102 189.746 53.6211C190.84 54.8242 191.387 56.4492 191.387 58.4961ZM181.953 58.4961C181.953 61.4883 183.059 62.9844 185.27 62.9844C187.457 62.9844 188.551 61.4883 188.551 58.4961C188.551 55.5352 187.449 54.0547 185.246 54.0547C184.09 54.0547 183.25 54.4375 182.727 55.2031C182.211 55.9688 181.953 57.0664 181.953 58.4961ZM205.168 65.2344C203.551 65.2344 202.289 64.6484 201.383 63.4766C200.477 62.3047 200.023 60.6602 200.023 58.543C200.023 56.418 200.48 54.7656 201.395 53.5859C202.316 52.3984 203.59 51.8047 205.215 51.8047C206.918 51.8047 208.215 52.4336 209.105 53.6914H209.246C209.113 52.7617 209.047 52.0273 209.047 51.4883V46.7656H211.812V65H209.656L209.176 63.3008H209.047C208.164 64.5898 206.871 65.2344 205.168 65.2344ZM205.906 63.0078C207.039 63.0078 207.863 62.6914 208.379 62.0586C208.895 61.418 209.16 60.3828 209.176 58.9531V58.5664C209.176 56.9336 208.91 55.7734 208.379 55.0859C207.848 54.3984 207.016 54.0547 205.883 54.0547C204.914 54.0547 204.168 54.4492 203.645 55.2383C203.121 56.0195 202.859 57.1367 202.859 58.5898C202.859 60.0273 203.113 61.125 203.621 61.8828C204.129 62.6328 204.891 63.0078 205.906 63.0078ZM223.859 65L223.309 63.1953H223.215C222.59 63.9844 221.961 64.5234 221.328 64.8125C220.695 65.0938 219.883 65.2344 218.891 65.2344C217.617 65.2344 216.621 64.8906 215.902 64.2031C215.191 63.5156 214.836 62.543 214.836 61.2852C214.836 59.9492 215.332 58.9414 216.324 58.2617C217.316 57.582 218.828 57.2109 220.859 57.1484L223.098 57.0781V56.3867C223.098 55.5586 222.902 54.9414 222.512 54.5352C222.129 54.1211 221.531 53.9141 220.719 53.9141C220.055 53.9141 219.418 54.0117 218.809 54.207C218.199 54.4023 217.613 54.6328 217.051 54.8984L216.16 52.9297C216.863 52.5625 217.633 52.2852 218.469 52.0977C219.305 51.9023 220.094 51.8047 220.836 51.8047C222.484 51.8047 223.727 52.1641 224.562 52.8828C225.406 53.6016 225.828 54.7305 225.828 56.2695V65H223.859ZM219.758 63.125C220.758 63.125 221.559 62.8477 222.16 62.293C222.77 61.7305 223.074 60.9453 223.074 59.9375V58.8125L221.41 58.8828C220.113 58.9297 219.168 59.1484 218.574 59.5391C217.988 59.9219 217.695 60.5117 217.695 61.3086C217.695 61.8867 217.867 62.3359 218.211 62.6562C218.555 62.9688 219.07 63.125 219.758 63.125ZM234.5 63.0078C235.172 63.0078 235.844 62.9023 236.516 62.6914V64.7656C236.211 64.8984 235.816 65.0078 235.332 65.0938C234.855 65.1875 234.359 65.2344 233.844 65.2344C231.234 65.2344 229.93 63.8594 229.93 61.1094V54.125H228.16V52.9062L230.059 51.8984L230.996 49.1562H232.695V52.0391H236.387V54.125H232.695V61.0625C232.695 61.7266 232.859 62.2188 233.188 62.5391C233.523 62.8516 233.961 63.0078 234.5 63.0078ZM244.777 65.2344C242.762 65.2344 241.184 64.6484 240.043 63.4766C238.91 62.2969 238.344 60.6758 238.344 58.6133C238.344 56.4961 238.871 54.832 239.926 53.6211C240.98 52.4102 242.43 51.8047 244.273 51.8047C245.984 51.8047 247.336 52.3242 248.328 53.3633C249.32 54.4023 249.816 55.832 249.816 57.6523V59.1406H241.18C241.219 60.3984 241.559 61.3672 242.199 62.0469C242.84 62.7188 243.742 63.0547 244.906 63.0547C245.672 63.0547 246.383 62.9844 247.039 62.8438C247.703 62.6953 248.414 62.4531 249.172 62.1172V64.3555C248.5 64.6758 247.82 64.9023 247.133 65.0352C246.445 65.168 245.66 65.2344 244.777 65.2344ZM244.273 53.8906C243.398 53.8906 242.695 54.168 242.164 54.7227C241.641 55.2773 241.328 56.0859 241.227 57.1484H247.109C247.094 56.0781 246.836 55.2695 246.336 54.7227C245.836 54.168 245.148 53.8906 244.273 53.8906ZM255.324 59.7969H253.285L252.676 47.8672H255.922L255.324 59.7969ZM252.535 63.5352C252.535 62.957 252.688 62.5195 252.992 62.2227C253.297 61.918 253.73 61.7656 254.293 61.7656C254.848 61.7656 255.273 61.9219 255.57 62.2344C255.867 62.5469 256.016 62.9805 256.016 63.5352C256.016 64.0898 255.863 64.5312 255.559 64.8594C255.262 65.1797 254.84 65.3398 254.293 65.3398C253.738 65.3398 253.305 65.1836 252.992 64.8711C252.688 64.5586 252.535 64.1133 252.535 63.5352Z" fill="white"/>
<rect x="899" y="34" width="129" height="48" rx="3" fill="#6CC5FF"/>
<path d="M933.492 64H931.977L925.734 54.4141H925.672C925.755 55.5391 925.797 56.5703 925.797 57.5078V64H924.57V52.5781H926.07L932.297 62.125H932.359C932.349 61.9844 932.326 61.5339 932.289 60.7734C932.253 60.0078 932.24 59.4609 932.25 59.1328V52.5781H933.492V64ZM940.055 64.1562C938.789 64.1562 937.789 63.7708 937.055 63C936.326 62.2292 935.961 61.1589 935.961 59.7891C935.961 58.4089 936.299 57.3125 936.977 56.5C937.659 55.6875 938.573 55.2812 939.719 55.2812C940.792 55.2812 941.641 55.6354 942.266 56.3438C942.891 57.0469 943.203 57.9766 943.203 59.1328V59.9531H937.305C937.331 60.9583 937.583 61.7214 938.062 62.2422C938.547 62.763 939.227 63.0234 940.102 63.0234C941.023 63.0234 941.935 62.8307 942.836 62.4453V63.6016C942.378 63.7995 941.943 63.9401 941.531 64.0234C941.125 64.112 940.633 64.1562 940.055 64.1562ZM939.703 56.3672C939.016 56.3672 938.466 56.5911 938.055 57.0391C937.648 57.487 937.409 58.1068 937.336 58.8984H941.812C941.812 58.0807 941.63 57.4557 941.266 57.0234C940.901 56.5859 940.38 56.3672 939.703 56.3672ZM952.414 64L950.844 58.9766C950.745 58.6693 950.56 57.9714 950.289 56.8828H950.227C950.018 57.7943 949.836 58.4974 949.68 58.9922L948.062 64H946.562L944.227 55.4375H945.586C946.138 57.5885 946.557 59.2266 946.844 60.3516C947.135 61.4766 947.302 62.2344 947.344 62.625H947.406C947.464 62.3281 947.555 61.9453 947.68 61.4766C947.81 61.0026 947.922 60.6276 948.016 60.3516L949.586 55.4375H950.992L952.523 60.3516C952.815 61.2474 953.013 62 953.117 62.6094H953.18C953.201 62.4219 953.255 62.1328 953.344 61.7422C953.438 61.3516 953.982 59.25 954.977 55.4375H956.32L953.953 64H952.414ZM963.398 61.6641C963.398 62.4609 963.102 63.0755 962.508 63.5078C961.914 63.9401 961.081 64.1562 960.008 64.1562C958.872 64.1562 957.987 63.9766 957.352 63.6172V62.4141C957.763 62.6224 958.203 62.7865 958.672 62.9062C959.146 63.026 959.602 63.0859 960.039 63.0859C960.716 63.0859 961.237 62.9792 961.602 62.7656C961.966 62.5469 962.148 62.2161 962.148 61.7734C962.148 61.4401 962.003 61.1562 961.711 60.9219C961.424 60.6823 960.862 60.401 960.023 60.0781C959.227 59.7812 958.659 59.5234 958.32 59.3047C957.987 59.0807 957.737 58.8281 957.57 58.5469C957.409 58.2656 957.328 57.9297 957.328 57.5391C957.328 56.8411 957.612 56.2917 958.18 55.8906C958.747 55.4844 959.526 55.2812 960.516 55.2812C961.438 55.2812 962.339 55.4688 963.219 55.8438L962.758 56.8984C961.898 56.5443 961.12 56.3672 960.422 56.3672C959.807 56.3672 959.344 56.4635 959.031 56.6562C958.719 56.849 958.562 57.1146 958.562 57.4531C958.562 57.6823 958.62 57.8776 958.734 58.0391C958.854 58.2005 959.044 58.3542 959.305 58.5C959.565 58.6458 960.065 58.8568 960.805 59.1328C961.82 59.5026 962.505 59.875 962.859 60.25C963.219 60.625 963.398 61.0964 963.398 61.6641ZM966.812 64H965.516V51.8438H966.812V64ZM973.18 64.1562C971.914 64.1562 970.914 63.7708 970.18 63C969.451 62.2292 969.086 61.1589 969.086 59.7891C969.086 58.4089 969.424 57.3125 970.102 56.5C970.784 55.6875 971.698 55.2812 972.844 55.2812C973.917 55.2812 974.766 55.6354 975.391 56.3438C976.016 57.0469 976.328 57.9766 976.328 59.1328V59.9531H970.43C970.456 60.9583 970.708 61.7214 971.188 62.2422C971.672 62.763 972.352 63.0234 973.227 63.0234C974.148 63.0234 975.06 62.8307 975.961 62.4453V63.6016C975.503 63.7995 975.068 63.9401 974.656 64.0234C974.25 64.112 973.758 64.1562 973.18 64.1562ZM972.828 56.3672C972.141 56.3672 971.591 56.5911 971.18 57.0391C970.773 57.487 970.534 58.1068 970.461 58.8984H974.938C974.938 58.0807 974.755 57.4557 974.391 57.0234C974.026 56.5859 973.505 56.3672 972.828 56.3672ZM981.312 63.0859C981.542 63.0859 981.763 63.0703 981.977 63.0391C982.19 63.0026 982.359 62.9661 982.484 62.9297V63.9219C982.344 63.9896 982.135 64.0443 981.859 64.0859C981.589 64.1328 981.344 64.1562 981.125 64.1562C979.469 64.1562 978.641 63.2839 978.641 61.5391V56.4453H977.414V55.8203L978.641 55.2812L979.188 53.4531H979.938V55.4375H982.422V56.4453H979.938V61.4844C979.938 62 980.06 62.3958 980.305 62.6719C980.549 62.9479 980.885 63.0859 981.312 63.0859ZM986.969 63.0859C987.198 63.0859 987.419 63.0703 987.633 63.0391C987.846 63.0026 988.016 62.9661 988.141 62.9297V63.9219C988 63.9896 987.792 64.0443 987.516 64.0859C987.245 64.1328 987 64.1562 986.781 64.1562C985.125 64.1562 984.297 63.2839 984.297 61.5391V56.4453H983.07V55.8203L984.297 55.2812L984.844 53.4531H985.594V55.4375H988.078V56.4453H985.594V61.4844C985.594 62 985.716 62.3958 985.961 62.6719C986.206 62.9479 986.542 63.0859 986.969 63.0859ZM993.477 64.1562C992.211 64.1562 991.211 63.7708 990.477 63C989.747 62.2292 989.383 61.1589 989.383 59.7891C989.383 58.4089 989.721 57.3125 990.398 56.5C991.081 55.6875 991.995 55.2812 993.141 55.2812C994.214 55.2812 995.062 55.6354 995.688 56.3438C996.312 57.0469 996.625 57.9766 996.625 59.1328V59.9531H990.727C990.753 60.9583 991.005 61.7214 991.484 62.2422C991.969 62.763 992.648 63.0234 993.523 63.0234C994.445 63.0234 995.357 62.8307 996.258 62.4453V63.6016C995.799 63.7995 995.365 63.9401 994.953 64.0234C994.547 64.112 994.055 64.1562 993.477 64.1562ZM993.125 56.3672C992.438 56.3672 991.888 56.5911 991.477 57.0391C991.07 57.487 990.831 58.1068 990.758 58.8984H995.234C995.234 58.0807 995.052 57.4557 994.688 57.0234C994.323 56.5859 993.802 56.3672 993.125 56.3672ZM1002.75 55.2812C1003.13 55.2812 1003.47 55.3125 1003.77 55.375L1003.59 56.5781C1003.24 56.5 1002.93 56.4609 1002.66 56.4609C1001.96 56.4609 1001.37 56.7422 1000.88 57.3047C1000.39 57.8672 1000.14 58.5677 1000.14 59.4062V64H998.844V55.4375H999.914L1000.06 57.0234H1000.12C1000.44 56.4661 1000.83 56.0365 1001.27 55.7344C1001.72 55.4323 1002.21 55.2812 1002.75 55.2812Z" fill="#1B003F"/>
<rect x="899" y="34" width="129" height="48" rx="3" stroke="#220050"/>
<rect x="13" y="9" width="1078" height="98" stroke="url(#paint0_linear_21_4286)" stroke-width="2"/>
<defs>
<linearGradient id="paint0_linear_21_4286" x1="12" y1="58.3225" x2="1092" y2="58.3225" gradientUnits="userSpaceOnUse">
<stop stop-color="#B45FFF"/>
<stop offset="1" stop-color="#6CC5FF"/>
</linearGradient>
</defs>
</svg>
