<svg width="201" height="27" viewBox="0 0 201 27" fill="none" xmlns="http://www.w3.org/2000/svg">
<g clip-path="url(#clip0_131_677)">
<path fill-rule="evenodd" clip-rule="evenodd" d="M6.29528 15.5933C6.29528 16.469 5.97917 17.1561 5.34695 17.6545C4.71474 18.1531 3.84263 18.4023 2.73064 18.4023C1.61866 18.4023 0.708443 18.2293 0 17.8836V16.3612C0.448381 16.5724 0.923666 16.7385 1.42586 16.8598C1.93253 16.9809 2.40332 17.0415 2.83825 17.0415C3.47496 17.0415 3.94352 16.9204 4.24394 16.6779C4.54883 16.4353 4.70128 16.1097 4.70128 15.7011C4.70128 15.3329 4.56228 15.0208 4.28429 14.7647C4.00629 14.5089 3.43236 14.2057 2.56251 13.8554C1.66573 13.4916 1.03352 13.0762 0.665847 12.6092C0.298174 12.1422 0.114337 11.5809 0.114337 10.9251C0.114337 10.1034 0.405785 9.4567 0.988681 8.98513C1.57158 8.51355 2.35401 8.27783 3.33596 8.27783C4.27757 8.27783 5.21468 8.48444 6.14732 8.89751L5.63615 10.2111C4.76181 9.84294 3.98163 9.65876 3.2956 9.65876C2.77549 9.65876 2.3809 9.77322 2.11188 10.0023C1.84284 10.2269 1.70834 10.5255 1.70834 10.8983C1.70834 11.1541 1.76214 11.3742 1.86975 11.5584C1.97736 11.738 2.15447 11.9086 2.40108 12.0703C2.64769 12.2319 3.09159 12.4453 3.73277 12.7103C4.45468 13.0111 4.98376 13.2918 5.32004 13.5522C5.65633 13.8128 5.90295 14.1069 6.05988 14.4347C6.2168 14.7625 6.29528 15.1487 6.29528 15.5933ZM13.7611 18.2681H8.19891V8.41979H13.7611V9.78056H9.80636V12.4615H13.5122V13.8088H9.80636V16.9006H13.7611V18.2681ZM17.8981 10.6422C18.4272 9.98664 19.1536 9.65876 20.0773 9.65876C20.4853 9.65876 20.8731 9.7194 21.2408 9.84066C21.613 9.95739 21.9649 10.0944 22.2967 10.2515L22.8751 8.911C22.0232 8.48884 21.0951 8.27783 20.0907 8.27783C19.1356 8.27783 18.3039 8.48217 17.5954 8.89084C16.887 9.29951 16.3444 9.88781 15.9678 10.6557C15.5957 11.4237 15.4097 12.3195 15.4097 13.3435C15.4097 14.9691 15.7951 16.2198 16.5664 17.0955C17.3377 17.9667 18.4428 18.4023 19.8822 18.4023C20.8596 18.4023 21.7339 18.2563 22.5052 17.9645V16.5836C22.0837 16.7138 21.6779 16.8216 21.2879 16.9069C20.8977 16.9877 20.4942 17.0282 20.0773 17.0282C19.1132 17.0282 18.3756 16.7182 17.8645 16.0985C17.3578 15.4788 17.1045 14.5649 17.1045 13.357C17.1045 12.2028 17.369 11.2978 17.8981 10.6422ZM32.3326 8.41979V14.7922C32.3326 15.5197 32.1756 16.1574 31.8618 16.7054C31.5524 17.2487 31.1017 17.6686 30.5099 17.9651C29.9225 18.2569 29.2186 18.4028 28.398 18.4028C27.1784 18.4028 26.2301 18.0795 25.5531 17.4328C24.8759 16.7862 24.5375 15.897 24.5375 14.7653V8.41979H26.1516V14.6508C26.1516 15.4636 26.3399 16.0631 26.7166 16.4494C27.0932 16.8356 27.6716 17.0287 28.4519 17.0287C29.9673 17.0287 30.7251 16.2315 30.7251 14.6373V8.41979H32.3326ZM37.5698 13.0004H36.4533V9.78056H37.5161C38.2469 9.78056 38.7939 9.90183 39.1572 10.1442C39.5202 10.3868 39.7019 10.7865 39.7019 11.3433C39.7019 11.8912 39.5337 12.3043 39.1974 12.5828C38.8611 12.8612 38.3187 13.0004 37.5698 13.0004ZM36.4533 18.2681V14.3342H38.0407L40.3946 18.2681H42.2241L39.4464 13.9099C40.7197 13.3889 41.3564 12.5154 41.3564 11.2894C41.3564 10.3284 41.0516 9.60988 40.4417 9.1339C39.8319 8.65778 38.8926 8.41979 37.6237 8.41979H34.846V18.2681H36.4533ZM49.2178 18.2681H43.6555V8.41979H49.2178V9.78056H45.263V12.4615H48.9688V13.8088H45.263V16.9006H49.2178V18.2681ZM57.9973 16.9814C58.8986 16.1192 59.3492 14.8753 59.3492 13.2497C59.3492 11.7183 58.9142 10.5305 58.0444 9.68628C57.1746 8.84195 55.9571 8.41979 54.3923 8.41979H51.3523V18.2681H54.1031C55.7979 18.2681 57.096 17.8392 57.9973 16.9814ZM54.3519 9.76707C56.5535 9.76707 57.6542 10.9459 57.6542 13.3035C57.6542 15.7105 56.4705 16.9141 54.1031 16.9141H52.9597V9.76707H54.3519ZM65.0978 8.41979H67.8755C69.1803 8.41979 70.1241 8.61518 70.7071 9.00582C71.2899 9.3966 71.5814 10.014 71.5814 10.8583C71.5814 11.4421 71.4177 11.9249 71.0904 12.3066C70.7675 12.6839 70.2945 12.9285 69.6712 13.0408V13.1081C71.1643 13.3642 71.9109 14.1501 71.9109 15.4659C71.9109 16.346 71.6128 17.0331 71.0164 17.5271C70.4245 18.0211 69.595 18.2681 68.5278 18.2681H65.0978V8.41979ZM66.2411 12.6367H68.1243C68.9315 12.6367 69.512 12.5109 69.8663 12.2594C70.2205 12.0034 70.3976 11.5746 70.3976 10.9728C70.3976 10.4204 70.2004 10.0231 69.8058 9.78056C69.4112 9.53349 68.7834 9.41009 67.9226 9.41009H66.2411V12.6367ZM66.2411 13.6067V17.2914H68.2925C69.0861 17.2914 69.6824 17.1386 70.0816 16.8333C70.4851 16.5235 70.6868 16.0407 70.6868 15.3851C70.6868 14.7742 70.4805 14.3252 70.0681 14.0378C69.66 13.7504 69.0368 13.6067 68.1983 13.6067H66.2411ZM79.1542 8.41979L76.5312 13.344L73.9284 8.41979H72.6774L75.9529 14.5026V18.2681H77.1097V14.4488L80.3918 8.41979H79.1542Z" fill="#1D0143"/>
<path fill-rule="evenodd" clip-rule="evenodd" d="M102.777 0L118.036 0.683219L124.213 14.4334L115.498 27L100.156 26.0158L93.8667 11.1177L102.777 0ZM113.964 7.92589L102.905 12.7659L112.359 20.0886L113.964 7.92589ZM112.683 5.50059L103.846 1.68871L101.989 9.70337L112.683 5.50059ZM110.443 21.9311L100.839 15.0607L101.071 24.3704L110.443 21.9311ZM122.679 14.403L116.134 7.74978L114.406 20.5436L122.679 14.403ZM112.695 23.4276L104.595 25.5484L114.121 26.1594L112.695 23.4276ZM121.4 17.4216L114.309 22.713L115.718 25.4713L121.4 17.4216ZM118.046 2.60438L116.669 5.43658L121.795 10.6566L118.046 2.60438ZM116.33 1.24906L107.328 0.883033L114.754 4.13656L116.33 1.24906ZM101.462 2.55879L95.1574 10.5344L99.3729 11.4289L101.462 2.55879ZM99.1187 12.9934L94.8829 12.0949L99.3026 22.5256L99.1187 12.9934Z" fill="#1D0143"/>
<path fill-rule="evenodd" clip-rule="evenodd" d="M134.721 12.5487H134.209V7.98242H132.836V18.698H134.209V13.6794H134.68L139.002 18.9653L140.046 18.081L135.888 13.042L139.432 8.53797L138.387 7.71533L134.721 12.5487ZM146.663 7.98234H145.291V18.698H152.254V17.4637H146.663V7.98234ZM157.312 7.98234H163.969V9.21636H158.684V12.4251H163.047V13.659H158.684V17.4639H163.969V18.6981H157.312V7.98234ZM173.063 7.98234H169.438V18.6978H170.81V14.1111H172.797L175.52 18.9651L176.708 18.2452L174.088 13.9056C175.376 13.5147 176.257 12.219 176.257 10.9029C176.257 8.82562 174.844 7.98234 173.063 7.98234ZM174.823 10.9029C174.823 12.1166 173.943 12.8774 172.613 12.8774H170.81V9.21636H173.021C174.25 9.21636 174.823 9.93628 174.823 10.9029ZM188.61 13.3499C188.61 14.2138 188.549 18.8825 184.821 18.8825C183.1 18.8825 181.031 17.6486 181.031 13.3499C181.031 9.07188 183.059 7.79681 184.821 7.79681C186.521 7.79681 188.61 9.03085 188.61 13.3499ZM182.465 13.3499C182.465 14.913 182.752 17.5868 184.821 17.5868C186.889 17.5868 187.176 14.913 187.176 13.3499C187.176 11.7663 186.889 9.09255 184.821 9.09255C182.752 9.09255 182.465 11.7663 182.465 13.3499ZM197.212 17.5868C195.778 17.5868 195.143 16.6203 194.877 15.3039L193.648 15.6945C193.976 17.6071 195.225 18.8824 197.212 18.8824C199.179 18.8824 200.592 17.7305 200.592 15.6945C200.592 14.584 200.08 13.7201 199.117 13.1853L196.843 12.1775C196.024 11.8075 195.41 11.5195 195.41 10.5116C195.41 9.54514 196.27 9.09255 197.151 9.09255C198.318 9.09255 198.871 9.83299 199.117 10.8818L200.428 10.491C199.998 8.82522 198.953 7.79681 197.171 7.79681C195.492 7.79681 194.037 8.80471 194.037 10.6145C194.037 12.4527 195.264 12.9566 196.661 13.5304C196.795 13.5857 196.932 13.6417 197.069 13.6996C197.154 13.7349 197.24 13.7696 197.326 13.8041C198.287 14.192 199.219 14.5682 199.219 15.7768C199.219 16.9699 198.339 17.5868 197.212 17.5868Z" fill="#1D0143"/>
</g>
<defs>
<clipPath id="clip0_131_677">
<rect width="201" height="27" fill="white"/>
</clipPath>
</defs>
</svg>
