<svg width="30" height="24" viewBox="0 0 30 24" fill="none" xmlns="http://www.w3.org/2000/svg">
<path d="M26.5703 5.98123C26.589 6.24372 26.589 6.50626 26.589 6.76875C26.589 14.775 20.4995 24 9.36973 24C5.94084 24 2.75557 23.0062 0.0761719 21.2813C0.563352 21.3375 1.03173 21.3563 1.53765 21.3563C4.36689 21.3563 6.97138 20.4 9.05119 18.7688C6.39053 18.7125 4.16082 16.9688 3.39259 14.5687C3.76736 14.625 4.14208 14.6625 4.53559 14.6625C5.07895 14.6625 5.62236 14.5874 6.12823 14.4563C3.35516 13.8937 1.27529 11.4562 1.27529 8.51249V8.43752C2.08095 8.88752 3.01788 9.16877 4.01087 9.20622C2.38074 8.1187 1.31278 6.26247 1.31278 4.16246C1.31278 3.03748 1.61252 2.00623 2.13718 1.10622C5.11638 4.78122 9.59455 7.18118 14.616 7.44372C14.5223 6.99372 14.4661 6.52502 14.4661 6.05626C14.4661 2.71872 17.1643 0 20.5182 0C22.2607 0 23.8346 0.731248 24.9401 1.9125C26.3079 1.65001 27.6194 1.14374 28.7812 0.450003C28.3314 1.85628 27.3759 3.03754 26.1205 3.78748C27.3385 3.6563 28.5189 3.31872 29.6056 2.85002C28.7813 4.04997 27.7507 5.11868 26.5703 5.98123Z" />
</svg>
